<?xml version="1.0" encoding="UTF-8" standalone="no"?>
<svg
   xml:space="preserve"
   viewBox="66.993 897.484 26 26"
   version="1.1"
   id="svg2"
   sodipodi:docname="icon.svg"
   inkscape:version="1.3.2 (091e20ef0f, 2023-11-25)"
   xmlns:inkscape="http://www.inkscape.org/namespaces/inkscape"
   xmlns:sodipodi="http://sodipodi.sourceforge.net/DTD/sodipodi-0.dtd"
   xmlns:xlink="http://www.w3.org/1999/xlink"
   xmlns="http://www.w3.org/2000/svg"
   xmlns:svg="http://www.w3.org/2000/svg"><sodipodi:namedview
     id="namedview2"
     pagecolor="#ffffff"
     bordercolor="#666666"
     borderopacity="1.0"
     inkscape:showpageshadow="2"
     inkscape:pageopacity="0.0"
     inkscape:pagecheckerboard="0"
     inkscape:deskcolor="#d1d1d1"
     inkscape:zoom="14.423077"
     inkscape:cx="22.464"
     inkscape:cy="2.08"
     inkscape:window-width="1920"
     inkscape:window-height="1040"
     inkscape:window-x="1920"
     inkscape:window-y="0"
     inkscape:window-maximized="1"
     inkscape:current-layer="svg2" /><linearGradient
     id="a"
     x1=".148"
     x2=".845"
     y1=".851"
     y2=".154"
     gradientTransform="matrix(26.301 0 0 26.331 90.674 911.757)"
     gradientUnits="userSpaceOnUse"><stop
       offset="0"
       stop-color="#0071ff"
       id="stop1"
       style="stop-color:#ff050f;stop-opacity:1;" /><stop
       offset="1"
       stop-color="#00bfe1"
       id="stop2"
       style="stop-color:#ffd2d9;stop-opacity:1;" /></linearGradient><defs
     id="defs2"><linearGradient
       xlink:href="#a"
       id="b"
       x1=".148"
       x2=".845"
       y1=".851"
       y2=".154"
       gradientTransform="matrix(26.00048 0 0 25.99935 66.993 897.485)"
       gradientUnits="userSpaceOnUse" /></defs><path
     fill="url(#b)"
     d="m89.318 903.552-2.135 2.122c-.376.337-.558.879-.347 1.337 1.422 2.976.882 6.524-1.452 8.856-2.335 2.331-5.887 2.87-8.866 1.449-.439-.197-.954-.03-1.292.312l-2.17 2.167a1.154 1.154 0 0 0 .208 1.81 13.005 13.005 0 0 0 15.91-1.912 12.97 12.97 0 0 0 1.956-15.887 1.154 1.154 0 0 0-1.812-.254zm-18.467-2.305a12.969 12.969 0 0 0-2.02 15.885 1.154 1.154 0 0 0 1.812.254l2.124-2.11c.385-.336.572-.884.359-1.348-1.423-2.976-.884-6.524 1.451-8.856 2.334-2.332 5.887-2.871 8.866-1.45.434.194.942.033 1.281-.3l2.182-2.18a1.152 1.152 0 0 0-.208-1.81 13.009 13.009 0 0 0-15.893 1.973z"
     id="path2" /><text
     xml:space="preserve"
     style="font-style:normal;font-weight:normal;font-size:9.66601px;line-height:1.25;font-family:sans-serif;letter-spacing:0px;word-spacing:0px;fill:#000000;fill-opacity:1;stroke:none;stroke-width:0.24165"
     x="57.242565"
     y="1213.079"
     id="text2"
     transform="scale(1.328785,0.75256719)"><tspan
       sodipodi:role="line"
       id="tspan2"
       x="57.242565"
       y="1213.079"
       style="stroke-width:0.24165">S</tspan></text></svg>
