<?xml version="1.0" encoding="UTF-8" standalone="no"?>
<svg
   xml:space="preserve"
   width="26"
   height="26"
   style="isolation:isolate"
   viewBox="66.993 897.484 26 26"
   version="1.1"
   id="svg2"
   sodipodi:docname="logo_e.svg"
   inkscape:version="1.3.2 (091e20ef0f, 2023-11-25)"
   inkscape:export-filename="icon.png"
   inkscape:export-xdpi="3780.9231"
   inkscape:export-ydpi="3780.9231"
   xmlns:inkscape="http://www.inkscape.org/namespaces/inkscape"
   xmlns:sodipodi="http://sodipodi.sourceforge.net/DTD/sodipodi-0.dtd"
   xmlns:xlink="http://www.w3.org/1999/xlink"
   xmlns="http://www.w3.org/2000/svg"
   xmlns:svg="http://www.w3.org/2000/svg"><sodipodi:namedview
     id="namedview2"
     pagecolor="#ffffff"
     bordercolor="#666666"
     borderopacity="1.0"
     inkscape:showpageshadow="2"
     inkscape:pageopacity="0.0"
     inkscape:pagecheckerboard="true"
     inkscape:deskcolor="#d1d1d1"
     inkscape:zoom="10.198656"
     inkscape:cx="3.1376685"
     inkscape:cy="27.552651"
     inkscape:window-width="1920"
     inkscape:window-height="1040"
     inkscape:window-x="1920"
     inkscape:window-y="0"
     inkscape:window-maximized="1"
     inkscape:current-layer="svg2"
     inkscape:export-bgcolor="#ffffff00" /><defs
     id="defs1"><inkscape:path-effect
       effect="fillet_chamfer"
       id="path-effect2"
       is_visible="true"
       lpeversion="1"
       nodesatellites_param="F,0,0,1,0,1.7367986,0,1 @ F,0,0,1,0,1.5010684,0,1 @ F,0,0,1,0,1.9101319,0,1 @ F,0,0,1,0,1.8824017,0,1"
       radius="0"
       unit="px"
       method="auto"
       mode="F"
       chamfer_steps="1"
       flexible="false"
       use_knot_distance="true"
       apply_no_radius="true"
       apply_with_radius="true"
       only_selected="false"
       hide_knots="false" /><linearGradient
       xlink:href="#a"
       id="b"
       x1=".148"
       x2=".845"
       y1=".851"
       y2=".154"
       gradientTransform="matrix(26.00048 0 0 25.99935 66.993 897.485)"
       gradientUnits="userSpaceOnUse" /></defs><linearGradient
     id="a"
     x1=".148"
     x2=".845"
     y1=".851"
     y2=".154"
     gradientTransform="matrix(26.301 0 0 26.331 90.674 911.757)"
     gradientUnits="userSpaceOnUse"><stop
       offset="0"
       stop-color="#004ba6"
       style="stop-color:#ff000c;stop-opacity:1;"
       id="stop1" /><stop
       offset="1"
       stop-color="#00bfe1"
       style="stop-color:#ffa5c0;stop-opacity:1;"
       id="stop2" /></linearGradient><path
     style="fill:#fffefe;fill-opacity:1;stroke:none;stroke-width:0.378;stroke-linecap:round;stroke-linejoin:round;stroke-dasharray:none;stroke-opacity:1;paint-order:stroke fill markers"
     id="rect2"
     width="13.207986"
     height="10.504017"
     x="68.622337"
     y="899.11334"
     inkscape:path-effect="#path-effect2"
     sodipodi:type="rect"
     d="m 70.359136,899.11334 h 9.970119 a 1.5010684,1.5010684 45 0 1 1.501068,1.50107 v 7.09282 a 1.9101319,1.9101319 135 0 1 -1.910132,1.91013 h -9.415452 a 1.8824017,1.8824017 45 0 1 -1.882402,-1.8824 v -6.88482 a 1.7367986,1.7367986 135 0 1 1.736799,-1.7368 z"
     transform="matrix(1.9659349,0,0,2.4700116,-67.87938,-1323.2915)" /><path
     fill="url(#a)"
     d="m89.318 903.552-2.135 2.122c-.376.337-.558.879-.347 1.337 1.422 2.976.882 6.524-1.452 8.856-2.335 2.331-5.887 2.87-8.866 1.449-.439-.197-.954-.03-1.292.312l-2.17 2.167a1.154 1.154 0 0 0 .208 1.81 13.005 13.005 0 0 0 15.91-1.912 12.97 12.97 0 0 0 1.956-15.887 1.154 1.154 0 0 0-1.812-.254zm-18.467-2.305a12.969 12.969 0 0 0-2.02 15.885 1.154 1.154 0 0 0 1.812.254l2.124-2.11c.385-.336.572-.884.359-1.348-1.423-2.976-.884-6.524 1.451-8.856 2.334-2.332 5.887-2.871 8.866-1.45.434.194.942.033 1.281-.3l2.182-2.18a1.152 1.152 0 0 0-.208-1.81 13.009 13.009 0 0 0-15.893 1.973z"
     style="fill:url(#b);stroke-width:.987988"
     id="path2" /><path
     d="m 84.229753,909.18609 c 5e-4,-0.007 -0.005,-0.0176 -0.0187,-0.0146 -0.0361,0.0149 0.0162,0.0489 0.0187,0.0146"
     id="Fill-1"
     fill="#c51631"
     style="fill-rule:evenodd;stroke:none;stroke-width:0.125" /><path
     d="m 84.209503,910.60647 c 2.5e-4,-0.006 -0.005,-0.0177 -0.0185,-0.0143 -0.0365,0.0149 0.0159,0.0487 0.0185,0.0143"
     id="Fill-3"
     fill="#c51631"
     style="fill-rule:evenodd;stroke:none;stroke-width:0.125" /><path
     d="m 81.316583,906.74152 c 0.01238,-0.0222 0.0058,-0.0438 -0.0164,-0.0589 -0.0031,-0.001 -0.0062,-0.003 -0.0092,-0.003 -0.026,-5e-4 -0.0426,0.008 -0.04945,0.0277 -0.01558,0.0445 0.04906,0.0807 0.07506,0.0344"
     id="Fill-5"
     fill="#c51631"
     style="fill-rule:evenodd;stroke:none;stroke-width:0.125" /><path
     d="m 81.738841,906.893 c 0.01205,-0.0196 0.01028,-0.0433 -0.01573,-0.0611 -0.0032,-10e-4 -0.0062,-0.003 -0.0093,-0.004 -0.02664,-0.002 -0.04532,0.0107 -0.04934,0.0355 -0.0073,0.0456 0.05137,0.0664 0.07434,0.029"
     id="Fill-7"
     fill="#c51631"
     style="fill-rule:evenodd;stroke:none;stroke-width:0.125" /><path
     d="m 80.895419,906.57961 c 0.0045,-0.0192 -0.0029,-0.0387 -0.03317,-0.0407 -0.01899,-10e-4 -0.02843,0.008 -0.03348,0.0199 -0.02162,0.053 0.05559,0.0673 0.06666,0.0208"
     id="Fill-9"
     fill="#c51631"
     style="fill-rule:evenodd;stroke:none;stroke-width:0.125" /><path
     d="m 82.16203,907.02622 c 0.0045,-0.0191 -0.003,-0.0386 -0.03341,-0.0408 -0.019,-0.002 -0.02827,0.008 -0.03309,0.0202 -0.0221,0.0529 0.0555,0.0671 0.0665,0.0205"
     id="Fill-11"
     fill="#c51631"
     style="fill-rule:evenodd;stroke:none;stroke-width:0.125" /><path
     d="m 80.459845,906.42871 c 0.0035,-0.0128 -0.0038,-0.0244 -0.02019,-0.0257 -0.01851,-10e-4 -0.02146,0.007 -0.02373,0.0155 -0.0074,0.0292 0.03659,0.0367 0.04392,0.0102"
     id="Fill-13"
     fill="#c51631"
     style="fill-rule:evenodd;stroke:none;stroke-width:0.125" /><path
     d="m 82.569995,907.17296 c 0.0035,-0.0129 -0.004,-0.0245 -0.02,-0.0256 -0.0187,-0.002 -0.02185,0.007 -0.02405,0.0154 -0.0073,0.029 0.0367,0.0365 0.0441,0.0102"
     id="Fill-15"
     fill="#c51631"
     style="fill-rule:evenodd;stroke:none;stroke-width:0.125" /><path
     d="m 80.030668,906.27465 c 5e-4,-0.007 -0.0055,-0.0175 -0.0184,-0.0146 -0.03659,0.0154 0.01605,0.049 0.0184,0.0146"
     id="Fill-17"
     fill="#c51631"
     style="fill-rule:evenodd;stroke:none;stroke-width:0.125" /><path
     d="m 82.98673,907.31711 c 5e-4,-0.006 -0.0053,-0.0175 -0.0187,-0.0145 -0.03645,0.015 0.0162,0.0491 0.0187,0.0145"
     id="Fill-20"
     fill="#c51631"
     style="fill-rule:evenodd;stroke:none;stroke-width:0.125" /><path
     d="m 81.097758,907.2482 c 0.04603,0.0162 0.117425,2.5e-4 0.14052,-0.0699 0.02175,-0.0668 -0.01828,-0.12575 -0.08063,-0.13976 -0.0352,-0.008 -0.05833,-10e-4 -0.07733,0.01 -0.01604,0.009 -0.03767,0.0254 -0.04958,0.0596 -0.02158,0.062 0.0139,0.12147 0.06702,0.14025"
     id="Fill-22"
     fill="#c51631"
     style="fill-rule:evenodd;stroke:none;stroke-width:0.125" /><path
     d="m 81.520673,907.3974 c 0.04611,0.0161 0.117625,2.5e-4 0.14048,-0.07 0.02185,-0.0668 -0.0184,-0.12566 -0.08035,-0.13992 -0.0356,-0.008 -0.05833,-5e-4 -0.07757,0.01 -0.01605,0.009 -0.0379,0.0254 -0.04973,0.0593 -0.02165,0.062 0.01393,0.1217 0.06717,0.14048"
     id="Fill-24"
     fill="#c51631"
     style="fill-rule:evenodd;stroke:none;stroke-width:0.125" /><path
     d="m 80.689793,907.0936 c 0.04344,0.011 0.09461,-0.009 0.115155,-0.0576 0.0256,-0.0613 -0.0092,-0.12491 -0.07335,-0.13736 -0.04842,-0.009 -0.08959,0.0111 -0.10978,0.0571 -0.02536,0.058 0.0091,0.12279 0.06797,0.13784"
     id="Fill-26"
     fill="#c51631"
     style="fill-rule:evenodd;stroke:none;stroke-width:0.125" /><path
     d="m 81.991866,907.54491 c 0.02397,-0.003 0.04766,-0.0163 0.06033,-0.0291 0.04531,-0.0473 0.02711,-0.11902 7.5e-4,-0.14573 -0.012,-0.0118 -0.0395,-0.0236 -0.06188,-0.0271 -0.03126,-0.005 -0.05141,0.003 -0.06475,0.0116 -0.0066,0.004 -0.02147,0.0127 -0.03305,0.0335 -0.04547,0.0832 0.02115,0.16427 0.09863,0.1569"
     id="Fill-28"
     fill="#c51631"
     style="fill-rule:evenodd;stroke:none;stroke-width:0.125" /><path
     d="m 80.367919,906.87405 c 0.01736,-0.0498 -0.0092,-0.0975 -0.06303,-0.10712 -0.04718,-0.009 -0.07936,0.0136 -0.0929,0.0548 -0.03138,0.0978 0.120172,0.15486 0.155929,0.0523"
     id="Fill-30"
     fill="#c51631"
     style="fill-rule:evenodd;stroke:none;stroke-width:0.125" /><path
     d="m 82.47801,907.61818 c 0.01735,-0.0498 -0.0089,-0.0975 -0.06275,-0.10704 -0.0476,-0.009 -0.07972,0.0135 -0.09302,0.0548 -0.0316,0.0978 0.120015,0.15478 0.15577,0.0522"
     id="Fill-32"
     fill="#c51631"
     style="fill-rule:evenodd;stroke:none;stroke-width:0.125" /><path
     d="m 82.806945,907.79522 c 0.0745,0.0235 0.101815,-0.0943 0.02765,-0.10969 -0.07263,-0.0152 -0.09242,0.0893 -0.02765,0.10969"
     id="Fill-34"
     fill="#c51631"
     style="fill-rule:evenodd;stroke:none;stroke-width:0.125" /><path
     d="m 79.910416,906.73381 c 0.03082,-0.0397 0.0041,-0.0829 -0.03504,-0.0893 -0.02381,-0.004 -0.04321,0.007 -0.05053,0.0169 -0.04989,0.0641 0.04655,0.12222 0.08557,0.0724"
     id="Fill-36"
     fill="#c51631"
     style="fill-rule:evenodd;stroke:none;stroke-width:0.125" /><path
     d="m 79.473675,906.55593 c 0.0048,-0.0181 -0.0059,-0.0315 -0.0256,-0.0329 -0.01979,-10e-4 -0.02517,0.01 -0.02811,0.0195 -0.0088,0.0333 0.04297,0.051 0.05372,0.0135"
     id="Fill-38"
     fill="#c51631"
     style="fill-rule:evenodd;stroke:none;stroke-width:0.125" /><path
     d="m 83.270765,907.89501 c 0.005,-0.0181 -0.0058,-0.0313 -0.0256,-0.0326 -0.01955,-0.002 -0.02525,0.009 -0.0279,0.0191 -0.0089,0.0331 0.04295,0.0511 0.05347,0.0135"
     id="Fill-40"
     fill="#c51631"
     style="fill-rule:evenodd;stroke:none;stroke-width:0.125" /><path
     d="m 79.039756,906.4002 c 3e-4,-0.007 -0.0055,-0.0177 -0.01892,-0.0145 -0.03619,0.0151 0.01645,0.0493 0.01892,0.0145"
     id="Fill-42"
     fill="#c51631"
     style="fill-rule:evenodd;stroke:none;stroke-width:0.125" /><path
     d="m 80.956374,907.73707 c 0.07506,0.0154 0.174724,-0.0323 0.196026,-0.13804 0.01732,-0.0864 -0.03997,-0.17573 -0.13825,-0.19459 -0.07275,-0.0137 -0.134785,0.018 -0.171976,0.0774 -0.07287,0.11585 0.01828,0.23559 0.1142,0.25518"
     id="Fill-44"
     fill="#c51631"
     style="fill-rule:evenodd;stroke:none;stroke-width:0.125" /><path
     d="m 81.379406,907.88611 c 0.07506,0.0154 0.174485,-0.0325 0.195787,-0.1378 0.0174,-0.0865 -0.03946,-0.17597 -0.137852,-0.19475 -0.07147,-0.0136 -0.145058,0.021 -0.177033,0.0839 -0.0616,0.1201 0.02285,0.22926 0.119098,0.24869"
     id="Fill-46"
     fill="#c51631"
     style="fill-rule:evenodd;stroke:none;stroke-width:0.125" /><path
     d="m 80.439915,907.52303 c 0.101657,0.12222 0.316956,0.0342 0.282234,-0.13656 -0.01004,-0.0514 -0.05459,-0.10576 -0.124035,-0.12082 -0.05467,-0.0118 -0.103647,0.004 -0.134228,0.0295 -0.0045,0.004 -0.03293,0.0327 -0.045,0.0611 -0.02437,0.0575 -0.01318,0.12543 0.02102,0.16675"
     id="Fill-48"
     fill="#c51631"
     style="fill-rule:evenodd;stroke:none;stroke-width:0.125" /><path
     d="m 81.706371,907.96976 c 0.101537,0.12222 0.317037,0.0342 0.282515,-0.13648 -0.01032,-0.0517 -0.05463,-0.10576 -0.124075,-0.12082 -0.05467,-0.0119 -0.103888,0.004 -0.13423,0.0294 -0.0048,0.004 -0.03309,0.0326 -0.04523,0.0611 -0.0243,0.0575 -0.01297,0.12587 0.02102,0.16676"
     id="Fill-50"
     fill="#c51631"
     style="fill-rule:evenodd;stroke:none;stroke-width:0.125" /><path
     d="m 80.177655,907.41214 c 0.06701,-0.0165 0.123397,-0.0951 0.103607,-0.17577 -0.01004,-0.0416 -0.05097,-0.0896 -0.109381,-0.10228 -0.02927,-0.006 -0.0485,-0.006 -0.0653,-0.002 -0.01354,0.003 -0.03723,0.0141 -0.05109,0.0247 -0.01035,0.008 -0.0401,0.0408 -0.05061,0.0775 -0.02819,0.099 0.06347,0.20468 0.172773,0.17789"
     id="Fill-52"
     fill="#c51631"
     style="fill-rule:evenodd;stroke:none;stroke-width:0.125" /><path
     d="m 82.394335,908.03986 c 0.0148,-0.0734 -0.03575,-0.14845 -0.119575,-0.16411 -0.05436,-0.0105 -0.10365,0.0118 -0.13228,0.0462 -0.04009,0.0485 -0.03587,0.12499 -0.02015,0.15715 0.05348,0.11217 0.242575,0.10948 0.272,-0.0392"
     id="Fill-54"
     fill="#c51631"
     style="fill-rule:evenodd;stroke:none;stroke-width:0.125" /><path
     d="m 82.76374,908.24431 c 0.02065,-0.024 0.03065,-0.0585 0.0296,-0.0851 -0.002,-0.0484 -0.0343,-0.0943 -0.09445,-0.10737 -0.02975,-0.007 -0.05081,-0.004 -0.06686,0.002 -0.0216,0.008 -0.05599,0.0315 -0.0696,0.0792 -0.03685,0.12771 0.12893,0.19531 0.20132,0.11057"
     id="Fill-56"
     fill="#c51631"
     style="fill-rule:evenodd;stroke:none;stroke-width:0.125" /><path
     d="m 79.631416,907.20062 c 0.07848,0.0882 0.221948,0.0154 0.203114,-0.0981 -0.0077,-0.0461 -0.03922,-0.0844 -0.101896,-0.0941 -0.05933,-0.01 -0.118101,0.0322 -0.129649,0.0999 -0.0059,0.0332 0.0106,0.0726 0.02843,0.0923"
     id="Fill-58"
     fill="#c51631"
     style="fill-rule:evenodd;stroke:none;stroke-width:0.125" /><path
     d="m 79.35527,907.0317 c 0.04321,-0.0459 0.02429,-0.11574 -0.03599,-0.13204 -0.0526,-0.0143 -0.105559,0.0216 -0.100661,0.0841 0.0055,0.0615 0.09166,0.0954 0.136657,0.0479"
     id="Fill-60"
     fill="#c51631"
     style="fill-rule:evenodd;stroke:none;stroke-width:0.125" /><path
     d="m 83.053105,908.38362 c 0.044,0.0249 0.09373,0.006 0.11221,-0.0267 0.03105,-0.0562 -0.002,-0.11418 -0.06036,-0.12223 -0.08103,-0.0113 -0.125665,0.10689 -0.05185,0.14894"
     id="Fill-62"
     fill="#c51631"
     style="fill-rule:evenodd;stroke:none;stroke-width:0.125" /><path
     d="m 78.914933,906.82593 c 0.0019,-0.02 -0.01656,-0.0364 -0.03954,-0.0378 -0.01808,-10e-4 -0.02795,0.009 -0.03265,0.0178 -0.03222,0.0626 0.06634,0.0811 0.07219,0.02"
     id="Fill-64"
     fill="#c51631"
     style="fill-rule:evenodd;stroke:none;stroke-width:0.125" /><path
     d="m 78.470629,906.6773 c 5e-4,-0.006 -0.0055,-0.0177 -0.01848,-0.0145 -0.03636,0.0149 0.01613,0.049 0.01848,0.0145"
     id="Fill-66"
     fill="#c51631"
     style="fill-rule:evenodd;stroke:none;stroke-width:0.125" /><path
     d="m 82.434245,910.93056 c 0.03195,-0.10553 -0.0145,-0.20752 -0.08963,-0.26507 0.09401,5e-4 0.178625,-0.0362 0.220715,-0.13444 0.05889,-0.13631 -0.0074,-0.25305 -0.125785,-0.31216 0.05925,0.0186 0.1089,0.0121 0.15298,-0.007 0.04165,-0.0184 0.08446,-0.0535 0.107115,-0.1026 0.0651,-0.14132 -0.01235,-0.27904 -0.14964,-0.31296 -0.09194,-0.0226 -0.161385,0.0217 -0.215935,0.075 0.0035,-0.0841 -0.031,-0.14986 -0.09003,-0.20412 0.1003,-0.0115 0.182565,-0.0717 0.20833,-0.18133 0.0228,-0.0958 -0.02675,-0.20604 -0.12113,-0.24957 -0.09202,-0.0426 -0.17058,-0.0205 -0.223977,0.014 -0.01698,0.0107 -0.02879,0.0268 -0.04711,0.0364 0.0028,-0.084 -0.03938,-0.14605 -0.096,-0.20112 0.09015,-0.002 0.181569,-0.0615 0.208129,-0.17348 0.0279,-0.11701 -0.05132,-0.23571 -0.169187,-0.2639 -0.100302,-0.0243 -0.181172,0.0271 -0.235525,0.0999 0.01075,-0.11337 -0.04221,-0.2261 -0.17556,-0.26098 -0.09771,-0.0254 -0.172455,0.015 -0.233975,0.0742 -0.0031,-0.0864 -0.04348,-0.15477 -0.11822,-0.20623 0.09246,-2.5e-4 0.174445,-0.0312 0.214543,-0.13124 0.0471,-0.11737 -0.01403,-0.23335 -0.115595,-0.27452 -0.120848,-0.0489 -0.245958,0.0195 -0.279764,0.13764 -0.02731,0.0943 0.01342,0.17549 0.07434,0.22527 0.0036,0.003 0.01318,0.005 0.01163,0.0121 -0.08915,-0.0135 -0.155014,0.0218 -0.213029,0.0734 -0.0051,-0.0813 -0.04735,-0.14477 -0.119894,-0.1935 0.10301,0.006 0.194793,-0.0389 0.226887,-0.15098 0.02926,-0.10264 -0.02027,-0.20888 -0.120612,-0.25225 -0.119655,-0.0517 -0.250139,0.0184 -0.283308,0.13904 -0.02835,0.10228 0.01744,0.176 0.0917,0.23671 -0.09457,-0.0154 -0.164252,0.0217 -0.223263,0.0803 -0.01,-0.0947 -0.05865,-0.1855 -0.177989,-0.21649 -0.08302,-0.0217 -0.160787,0.008 -0.211078,0.0529 -0.01971,0.0175 -0.03401,0.0387 -0.05192,0.0584 0.01135,-0.0969 -0.02879,-0.18846 -0.122601,-0.23147 -0.122482,-0.0567 -0.271444,0.003 -0.307838,0.14901 -0.01708,0.0689 0.0016,0.13492 0.03652,0.18261 0.01158,0.0156 0.02783,0.0261 0.03579,0.0417 -0.08652,-0.005 -0.150952,0.0361 -0.206937,0.0942 0.0034,-0.11377 -0.104802,-0.22238 -0.234133,-0.21525 -0.07824,0.005 -0.157721,0.0483 -0.195031,0.13564 -0.04583,0.10788 -0.0036,0.1959 0.05997,0.26002 -0.08418,0.002 -0.152147,0.0383 -0.205544,0.10524 0.0053,-0.10764 -0.08418,-0.2122 -0.203034,-0.22017 -0.08386,-0.006 -0.175043,0.0423 -0.21295,0.13459 -0.04515,0.10969 0.0015,0.23616 0.114359,0.28453 0.104563,0.0448 0.2018,-2.5e-4 0.258024,-0.0659 -0.0054,0.0676 0.01768,0.12114 0.0516,0.16967 -0.05845,0.008 -0.105639,0.0379 -0.148603,0.0776 -0.01792,-0.0729 -0.05559,-0.14156 -0.147687,-0.17416 -0.121845,-0.0428 -0.250538,0.022 -0.292109,0.14124 -0.03747,0.10753 0.006,0.20096 0.08657,0.26663 -0.10767,-0.003 -0.213029,0.0477 -0.247035,0.17837 -0.0264,0.10312 0.01812,0.18409 0.08633,0.24533 -0.103767,0.004 -0.202358,0.0535 -0.233894,0.18557 -0.02513,0.10608 0.02796,0.19295 0.108028,0.25041 -0.102573,-0.009 -0.203991,0.0441 -0.240066,0.15138 -0.03743,0.11097 0.01474,0.24292 0.140639,0.28593 0.09676,0.033 0.16668,-0.004 0.228956,-0.0519 0.0025,0.0696 0.03205,0.12595 0.07605,0.1754 -0.07378,0.0129 -0.133591,0.0559 -0.177471,0.13096 0.02007,-0.10052 -0.02811,-0.19523 -0.11635,-0.23456 -0.108147,-0.0485 -0.23043,-0.003 -0.277854,0.10096 -0.05419,0.11886 0.0051,0.23952 0.102055,0.28281 0.121128,0.0541 0.217608,-0.004 0.276221,-0.0965 -0.02178,0.11689 0.02385,0.20071 0.11408,0.26326 -0.09803,-0.008 -0.183125,0.0272 -0.225691,0.12503 -0.05101,0.11713 0.0041,0.23883 0.109222,0.28505 0.112129,0.0495 0.219241,10e-4 0.280124,-0.10008 -0.01963,0.0916 0.01286,0.17765 0.07076,0.22931 0.10098,0.0901 0.253883,0.0684 0.326831,-0.007 0.002,0.0757 0.0422,0.13287 0.09413,0.18441 -0.07916,0.009 -0.14932,0.0425 -0.187147,0.12783 -0.0532,0.12034 0.0016,0.24396 0.106594,0.2923 0.122203,0.0566 0.235646,5e-4 0.298082,-0.11237 -0.03074,0.11754 0.02321,0.23515 0.143346,0.2762 0.109382,0.0371 0.206698,-0.0124 0.260573,-0.0887 0.004,-0.006 0.004,-0.0161 0.01378,-0.0164 -0.01712,0.11953 0.04137,0.21789 0.148802,0.25429 0.11834,0.0403 0.245959,-0.0249 0.286335,-0.14044 0.02389,-0.0685 0.01302,-0.1336 -0.01298,-0.18269 -0.009,-0.017 -0.0229,-0.0267 -0.03054,-0.0477 0.05853,-0.002 0.105718,-0.0262 0.149638,-0.0588 0.01155,0.0562 0.04539,0.10127 0.08768,0.1426 -0.0788,0.0109 -0.145458,0.0416 -0.183126,0.12367 -0.06291,0.13796 0.01215,0.27852 0.149638,0.31276 0.09756,0.0247 0.204468,-0.0254 0.247592,-0.11946 0.0526,-0.11561 0.008,-0.19182 -0.04882,-0.26158 0.0741,2.5e-4 0.133671,-0.0303 0.185435,-0.0779 0.0096,0.0865 0.07414,0.17188 0.178705,0.19863 0.113284,0.029 0.209009,-0.0301 0.266625,-0.12094 -0.01027,0.055 1.25e-4,0.10224 0.0237,0.1436 0.02286,0.0403 0.06041,0.0807 0.118181,0.10008 0.113561,0.0385 0.234808,-0.0233 0.273911,-0.1344 0.03639,-0.1046 -0.0073,-0.1955 -0.09019,-0.25706 0.108467,0.0127 0.188502,-0.0341 0.247275,-0.12534 -0.01457,0.10744 0.03405,0.20223 0.138887,0.23735 0.11149,0.0376 0.231145,-0.0217 0.268298,-0.13363 0.03918,-0.1187 -0.02452,-0.23135 -0.130725,-0.26891 -0.102773,-0.0363 -0.20391,0.0124 -0.255835,0.0982 0.01472,-0.0845 -0.0102,-0.14973 -0.05511,-0.20508 0.06522,-0.009 0.120968,-0.0388 0.167595,-0.087 0.01108,0.0801 0.06299,0.16223 0.168673,0.18926 0.115752,0.03 0.24094,-0.0442 0.271881,-0.16663 0.0217,-0.0861 -0.01403,-0.17665 -0.07367,-0.22771 -0.0059,-0.005 -0.01873,-0.007 -0.0201,-0.0177 0.09983,0.009 0.194791,-0.0376 0.237636,-0.13647 0.0485,-0.11286 0.008,-0.21229 -0.06741,-0.28369 0.0956,0.005 0.195545,-0.0624 0.227165,-0.16688 m -3.727931,-1.65961 c 0.0079,0.0453 0.01796,0.0894 0.04615,0.12515 -0.04098,0.0154 -0.08059,0.0329 -0.112965,0.0662 -0.0088,-0.01 -0.0082,-0.0246 -0.01353,-0.0367 -0.01684,-0.0385 -0.04635,-0.0703 -0.0845,-0.0987 0.06431,5e-4 0.120132,-0.0159 0.164849,-0.056 m -0.111612,0.55525 c -0.03815,0.0142 -0.07386,0.0334 -0.104165,0.0639 -0.01502,-0.0504 -0.04054,-0.0958 -0.08609,-0.13123 0.05511,-0.001 0.104245,-0.0161 0.145418,-0.0469 0.0095,0.0405 0.02102,0.0805 0.04483,0.11417 m -0.256989,0.5168 c -0.0129,-0.0655 -0.04249,-0.12318 -0.105957,-0.16451 0.06729,0.005 0.125747,-0.01 0.172613,-0.0481 0.01143,0.0475 0.02321,0.0947 0.05646,0.13147 -0.0444,0.0195 -0.08915,0.0391 -0.123119,0.0811 m 1.105403,-1.79953 c 0.0064,0.0492 0.01346,0.0982 0.04189,0.13704 -0.04237,0.0151 -0.08473,0.0299 -0.119297,0.0613 -0.0164,-0.0449 -0.04189,-0.0856 -0.08242,-0.11926 0.06291,-0.006 0.118779,-0.0268 0.159832,-0.0791 m -0.504263,1.43034 c -0.01011,-0.009 -0.0096,-0.0227 -0.02051,-0.031 0.0099,-0.009 0.02477,-0.008 0.0346,-0.0169 0.0027,0.001 0.0164,0.0296 0.01617,0.0296 -0.0029,0.01 -0.02389,0.006 -0.03026,0.0182 m -0.118898,0.40927 c -0.01597,0.005 -0.02927,0.0151 -0.04288,0.0246 -0.01247,-0.0117 -0.01386,-0.0284 -0.02541,-0.0406 0.01883,-0.006 0.03723,-0.0124 0.05451,-0.0206 0.0051,0.012 0.01238,0.023 0.01378,0.0365 m 0.269532,-0.83361 c -0.01262,-0.0124 -0.01501,-0.0294 -0.02764,-0.0417 0.01143,-0.007 0.02616,-0.008 0.03723,-0.016 0.0089,0.0114 0.0086,0.0272 0.01836,0.0382 -0.0072,0.0111 -0.02079,0.009 -0.02796,0.0195 m 0.159394,-0.43486 c -0.0018,10e-4 -0.01592,0.0152 -0.02051,0.0139 -0.0065,-0.002 -0.01469,-0.0255 -0.01983,-0.0335 -0.0084,-0.0122 -0.01457,-0.0216 -0.02421,-0.0297 0.02783,-0.009 0.05519,-0.018 0.07864,-0.036 0.0078,0.0223 0.01346,0.0458 0.02413,0.0668 -0.0094,0.008 -0.02596,0.0118 -0.03822,0.0184 m -0.598512,1.64155 c 0.008,0.01 0.01238,0.0251 0.02277,0.0475 0.0045,0.009 0.02162,0.0355 0.02079,0.0393 -8e-4,0.004 -0.03233,0.0208 -0.03731,0.0239 -0.01433,0.009 -0.02452,0.0151 -0.03356,0.0281 -0.01011,-0.0143 -0.01067,-0.0331 -0.01736,-0.0487 -0.01019,-0.0226 -0.02636,-0.0421 -0.04157,-0.0623 0.02999,-0.007 0.06104,-0.0113 0.08625,-0.0278 m -0.08625,0.54239 c -0.04607,0.0212 -0.08461,0.0577 -0.113603,0.11397 0.01223,-0.0988 -0.0176,-0.17744 -0.102054,-0.22974 0.0749,0.007 0.137573,-0.0116 0.189815,-0.0524 0.01083,0.057 0.03066,0.10952 0.0741,0.15073 -0.01437,0.0107 -0.03245,0.0104 -0.04826,0.0175 m 0.334794,0.1899 c -0.0083,-0.0248 -0.01067,-0.0508 -0.02159,-0.074 -0.0084,-0.0177 -0.02373,-0.0312 -0.02998,-0.0503 0.03428,-0.003 0.06542,-0.0122 0.09258,-0.0312 0.01915,0.0289 0.02501,0.0639 0.05061,0.0896 -0.03277,0.0174 -0.06618,0.0334 -0.09162,0.066 m 0.203433,-0.52273 c -0.01286,0.01 -0.02576,0.0198 -0.04228,0.0222 0.0025,-0.007 -0.0021,-0.0105 -0.0051,-0.0151 0.01454,-0.004 0.03895,-0.028 0.04735,-0.007 m 0.584218,-1.71275 c 0.0025,0.006 -0.0081,-0.0109 -0.0078,-0.016 -0.0027,-0.006 0.0078,0.0109 0.0078,0.016 m 0.129729,-0.41055 c -0.01402,-0.0177 -0.02079,-0.0387 -0.03616,-0.0554 0.02214,-0.0103 0.04555,-0.0195 0.06494,-0.0353 0.0081,0.021 0.01258,0.0439 0.02282,0.0636 -0.01597,0.0122 -0.0356,0.0155 -0.05161,0.0272 m 0.126902,-0.36386 c -0.01915,-0.0505 -0.04252,-0.0989 -0.09322,-0.1338 0.01501,-0.007 0.0348,-0.005 0.05356,-0.0103 0.04743,-0.0127 0.100741,-0.0469 0.130883,-0.10236 0.0053,0.0139 -7e-4,0.0261 -7.5e-4,0.0395 8e-5,0.0493 0.01999,0.10412 0.05081,0.14241 -0.05184,0.0117 -0.101418,0.0278 -0.141276,0.0645 m 0.500758,-0.0517 c 0.0048,0.0454 0.019,0.0864 0.03847,0.12511 -0.03607,0.006 -0.06909,0.019 -0.09859,0.0395 -0.0186,-0.0309 -0.03253,-0.0642 -0.0608,-0.0906 0.04539,-0.0145 0.08752,-0.0353 0.120929,-0.074 m -1.082507,3.08942 c 0.0099,0.0161 0.01632,0.0343 0.02764,0.0494 -0.01836,0.0116 -0.0358,0.026 -0.05614,0.0333 -0.0024,-0.0232 -0.01286,-0.0422 -0.02374,-0.0611 0.01744,-0.008 0.03691,-0.0104 0.05224,-0.0216 m 0.880707,-2.56357 c 0.0031,-0.008 0.01044,-0.008 0.01501,-0.0133 0.01027,0.009 0.01207,0.022 0.01494,0.0344 -0.01919,0.0144 -0.01736,-0.0113 -0.02995,-0.0211 m -0.969458,3.07624 c -0.04635,0.0183 -0.09533,0.0555 -0.121765,0.12154 0.01605,-0.0927 -0.0055,-0.16759 -0.06737,-0.22278 0.05742,-0.007 0.11197,-0.0192 0.15597,-0.0537 0.01704,0.0509 0.03659,0.1002 0.08159,0.13744 -0.01557,0.009 -0.03209,0.0107 -0.04842,0.0175 m 1.593384,-3.4428 c 0.0093,0.0395 0.01565,0.0803 0.04002,0.11241 -0.0313,0.008 -0.05981,0.0217 -0.09055,0.0316 -0.01011,-0.028 -0.02616,-0.0539 -0.04671,-0.0774 0.03432,-0.0183 0.0704,-0.0326 0.09724,-0.0667 m -1.077728,3.09115 c 0.01135,0.0109 0.01394,0.026 0.02381,0.0374 -0.01457,0.0104 -0.02903,0.0211 -0.04611,0.0263 -0.0018,-0.0168 -0.01044,-0.0303 -0.01592,-0.0454 0.01134,-0.009 0.02715,-0.009 0.03822,-0.0183 m 0.883016,-2.56269 c 0.0082,-0.0155 0.02656,-0.009 0.02374,0.008 -0.0072,-5e-4 -0.0098,0.008 -0.01784,0.005 -6e-4,-0.005 -0.0026,-0.009 -0.0059,-0.0129 m -0.975754,3.06336 c -0.03787,0.0153 -0.07064,0.0408 -0.09879,0.0792 -0.0049,0.007 -0.0081,0.017 -0.01776,0.0205 0.01067,-0.0597 -6e-4,-0.10929 -0.02608,-0.15246 -0.0081,-0.0138 -0.02046,-0.0251 -0.02524,-0.0408 0.0524,-0.002 0.09664,-0.0206 0.135782,-0.05 0.02126,0.0448 0.03731,0.0919 0.08051,0.12623 -0.01605,0.009 -0.03261,0.011 -0.04842,0.0174 m 0.498647,-0.27239 c -0.0053,-0.0212 -0.01238,-0.0414 -0.0211,-0.0605 0.0162,-0.0103 0.03544,-0.0132 0.05085,-0.0247 0.01278,0.0147 0.01843,0.0331 0.03074,0.0481 -0.02047,0.0116 -0.04193,0.0213 -0.06048,0.0371 m 0.899859,-2.64179 c 0.009,-0.0102 0.02134,-0.0128 0.03106,-0.0209 0.0048,0.007 0.0097,0.0138 0.0076,0.0239 -0.01322,-10e-4 -0.01947,0.0113 -0.03238,0.01 -6e-4,-0.005 -0.003,-0.009 -0.0063,-0.0129 m 0.176795,-0.37816 c -0.0039,0.002 -0.02195,0.0135 -0.02317,0.0131 -0.0035,-10e-4 -0.0141,-0.0294 -0.0166,-0.035 -0.0116,-0.0245 -0.02054,-0.0414 -0.0393,-0.0616 0.04033,-0.0167 0.07792,-0.0392 0.108307,-0.076 0.006,0.05 0.019,0.0967 0.05065,0.1346 -0.02513,0.007 -0.05205,0.0119 -0.07988,0.0249 m -0.659634,3.20144 c -0.006,-0.0241 -0.009,-0.0515 -0.02018,-0.0789 -0.0021,-0.005 -0.01354,-0.021 -0.01298,-0.023 0.0021,-0.006 0.02317,-0.008 0.0301,-0.0108 0.01736,-0.007 0.04392,-0.0233 0.05559,-0.0305 0.01581,0.0289 0.03054,0.0584 0.05575,0.0829 -0.03994,0.0131 -0.078,0.0278 -0.108267,0.0602 m 0.92578,-2.64039 c -0.01262,-0.0155 -0.01963,-0.0339 -0.02672,-0.0521 0.01795,-0.0101 0.03691,-0.0179 0.05168,-0.0345 0.0092,0.0231 0.02103,0.0445 0.02899,0.0686 -0.0198,0.002 -0.03615,0.0112 -0.05396,0.018 m -0.73465,2.13712 c -0.01883,0.0255 -0.02461,-0.0136 -0.02923,-0.0288 0.0037,-5e-4 0.0069,-0.002 0.0094,-0.005 0.0072,0.0109 0.01131,0.0233 0.01987,0.0334 m 0.859283,-2.50198 c -0.01285,-0.0501 -0.03424,-0.096 -0.07179,-0.13432 0.05746,-0.0186 0.10994,-0.0472 0.146373,-0.11008 -0.0036,0.0793 0.019,0.14533 0.07737,0.19434 -0.05551,0.007 -0.10946,0.0167 -0.151947,0.0501 m 0.340927,0.36971 c 0.0029,10e-4 0.0039,0.002 0.0037,0.004 0.0056,0.0443 0.0176,0.0872 0.04467,0.12186 0.0088,0.0112 0.02322,0.0186 0.02772,0.0339 -0.05208,-0.004 -0.09246,0.0187 -0.134307,0.0375 -0.0071,-0.0431 -0.02593,-0.0805 -0.05268,-0.11417 0.03938,-0.0226 0.08143,-0.0394 0.110855,-0.0829 m -0.477265,1.38421 c 0.0109,0.008 0.01302,0.0208 0.0207,0.0311 -0.01095,0.005 -0.0207,0.0112 -0.03337,0.0121 0.0038,-0.0127 -0.01358,-0.0205 -0.01122,-0.0278 0.0028,-0.01 0.0176,-0.003 0.0239,-0.0154 m 0.12519,-0.4124 c 0.01215,-0.002 0.02222,-0.0109 0.03249,-0.0177 0.01002,0.009 0.01282,0.0215 0.02055,0.0313 -0.01425,0.006 -0.02779,0.0145 -0.04476,0.0159 0.0025,-0.0124 -0.01107,-0.0169 -0.0083,-0.0294 m -0.26981,0.83373 c 0.01423,0.0135 0.01585,0.0331 0.03182,0.0458 -0.01095,0.0113 -0.02787,0.01 -0.03898,0.0206 -0.0091,-0.0146 -0.0097,-0.0334 -0.02067,-0.047 0.0071,-0.0113 0.02067,-0.008 0.02783,-0.0195 m 0.430757,-1.21998 c -0.0056,-0.0202 -0.01457,-0.0387 -0.02485,-0.0567 0.01735,-0.015 0.03994,-0.0195 0.05575,-0.0386 0.01425,0.0236 0.02225,0.0504 0.04058,0.0726 -0.02478,0.006 -0.04711,0.0168 -0.07147,0.0228 m -0.562278,1.63554 c 0.0137,0.0273 0.03018,0.0535 0.0524,0.0768 -0.03919,0.009 -0.07637,0.0228 -0.106912,0.0496 -0.0069,-0.0294 -0.01736,-0.0571 -0.02577,-0.0859 0.02895,-0.009 0.05582,-0.0226 0.08028,-0.0405 m -0.242138,0.63373 c 0.0087,-0.0764 -0.0061,-0.14128 -0.04874,-0.19274 0.05535,-0.0125 0.107988,-0.0325 0.149638,-0.0743 0.01816,0.0607 0.04826,0.11582 0.112885,0.15362 -0.09122,-0.004 -0.165604,0.0268 -0.213785,0.11337 m 0.89962,-0.82411 c -0.05479,10e-4 -0.109303,0.0249 -0.14908,0.0642 -0.0032,-0.0515 -0.02438,-0.0942 -0.04432,-0.13768 0.04647,-0.008 0.08302,-0.0356 0.119892,-0.0638 0.01637,0.0537 0.04408,0.10187 0.100145,0.13631 -0.0073,0.007 -0.01908,5e-4 -0.02664,10e-4 m 0.19953,-0.83709 c -0.01322,0.006 -0.02317,0.0195 -0.03898,0.0207 -0.0049,-0.043 -0.02095,-0.0802 -0.04463,-0.11401 0.0391,-0.0159 0.07593,-0.0373 0.108029,-0.0678 0.014,0.0541 0.03915,0.1026 0.09179,0.13852 -0.0419,0.003 -0.081,0.006 -0.116196,0.0226 m -0.04484,0.40075 c -0.03751,0.006 -0.0741,0.01 -0.106555,0.0262 -0.01302,0.006 -0.02197,0.0181 -0.03671,0.0215 -0.0048,-0.0393 -0.01745,-0.0754 -0.0393,-0.10681 0.03424,-0.0168 0.07,-0.0305 0.09772,-0.0609 0.02157,0.0432 0.03775,0.089 0.08485,0.1201 m 0.183444,-0.8137 c -0.0132,0.007 -0.02225,0.0201 -0.0374,0.024 -0.004,-0.0568 -0.0263,-0.10516 -0.06227,-0.14657 0.05264,-0.0195 0.10261,-0.044 0.139125,-0.0969 0.002,1.2e-4 0.002,0.002 0.002,0.003 0.0045,0.0776 0.0431,0.15149 0.118105,0.19042 0.0051,0.002 0.02265,0.005 0.0182,0.009 -0.0704,-0.0181 -0.12957,-0.0102 -0.17759,0.0172"
     id="Fill-68"
     fill="#c51631"
     style="fill-rule:evenodd;stroke:none;stroke-width:0.125" /><path
     d="m 80.535496,908.01323 c 0.0614,-0.0453 0.09879,-0.14289 0.07753,-0.22214 -0.0143,-0.0526 -0.06733,-0.12214 -0.15366,-0.14173 -0.03162,-0.007 -0.06486,-0.008 -0.08907,-0.002 -0.09405,0.0202 -0.181891,0.13524 -0.149877,0.25526 0.03377,0.12475 0.202875,0.19351 0.315084,0.11105"
     id="Fill-70"
     fill="#c51631"
     style="fill-rule:evenodd;stroke:none;stroke-width:0.125" /><path
     d="m 81.642388,908.49386 c 0.08143,0.0188 0.18173,-0.0209 0.223143,-0.10976 0.06088,-0.13091 -0.01185,-0.26231 -0.144583,-0.28986 -0.06331,-0.0131 -0.109142,0.004 -0.150752,0.0317 -0.02218,0.0151 -0.04818,0.0322 -0.06905,0.0764 -0.05794,0.12395 0.0095,0.26098 0.141237,0.2915"
     id="Fill-72"
     fill="#c51631"
     style="fill-rule:evenodd;stroke:none;stroke-width:0.125" /><path
     d="m 82.043548,908.62214 c 0.09716,0.0323 0.205302,-0.0215 0.238952,-0.1177 0.03725,-0.10704 -0.0218,-0.21705 -0.130885,-0.24508 -0.04818,-0.0122 -0.09274,-0.007 -0.126982,0.008 -0.03934,0.0183 -0.08091,0.0579 -0.09919,0.11093 -0.03632,0.10448 0.01772,0.20992 0.118102,0.2436"
     id="Fill-74"
     fill="#c51631"
     style="fill-rule:evenodd;stroke:none;stroke-width:0.125" /><path
     d="m 80.023222,907.88569 c 0.08151,-0.0125 0.174485,-0.10311 0.157642,-0.21773 -0.0032,-0.0221 -0.01242,-0.0383 -0.01875,-0.0517 -0.0219,-0.0458 -0.0583,-0.088 -0.135543,-0.10364 -0.06546,-0.0131 -0.128852,0.0145 -0.160628,0.0442 -0.02111,0.0201 -0.05061,0.0705 -0.05821,0.10673 -0.02584,0.1219 0.08975,0.24076 0.215498,0.22213"
     id="Fill-76"
     fill="#c51631"
     style="fill-rule:evenodd;stroke:none;stroke-width:0.125" /><path
     d="m 82.395285,908.69576 c 0.01495,0.0185 0.04815,0.0437 0.07872,0.0543 0.11384,0.0381 0.245405,-0.0657 0.216495,-0.19715 -0.0104,-0.0469 -0.05579,-0.10516 -0.12081,-0.12222 -0.03395,-0.009 -0.0559,-0.01 -0.08028,-0.005 -0.0481,0.0108 -0.09815,0.0461 -0.12013,0.10941 -0.0214,0.0617 -0.0045,0.12214 0.026,0.16034"
     id="Fill-78"
     fill="#c51631"
     style="fill-rule:evenodd;stroke:none;stroke-width:0.125" /><path
     d="m 79.611522,907.7113 c 0.07382,-0.0185 0.144343,-0.11253 0.121447,-0.20408 -0.01362,-0.0541 -0.05746,-0.10616 -0.134388,-0.12158 -0.02943,-0.006 -0.05089,-0.005 -0.06845,-8e-5 -0.05431,0.0136 -0.122123,0.0723 -0.126185,0.15714 -0.0041,0.0918 0.08955,0.19851 0.207574,0.1686"
     id="Fill-80"
     fill="#c51631"
     style="fill-rule:evenodd;stroke:none;stroke-width:0.125" /><path
     d="m 79.045064,907.48234 c 0.04774,0.062 0.139205,0.0607 0.187107,0.0236 0.09302,-0.0729 0.05021,-0.21277 -0.05539,-0.23467 -0.02811,-0.006 -0.03954,-0.006 -0.05738,-0.002 -0.05455,0.0131 -0.11862,0.0785 -0.09887,0.16166 0.0028,0.0117 0.01474,0.0382 0.02452,0.051"
     id="Fill-82"
     fill="#c51631"
     style="fill-rule:evenodd;stroke:none;stroke-width:0.125" /><path
     d="m 82.83144,908.80708 c 0.049,0.0826 0.185755,0.0903 0.23318,-0.003 0.0454,-0.0895 -0.0061,-0.17853 -0.09537,-0.19559 -0.0309,-0.006 -0.05272,-0.003 -0.07016,0.005 -0.0252,0.01 -0.05177,0.0279 -0.06865,0.0608 -0.02805,0.0547 -0.01295,0.10925 0.001,0.13312"
     id="Fill-84"
     fill="#c51631"
     style="fill-rule:evenodd;stroke:none;stroke-width:0.125" /><path
     d="m 78.750311,907.33592 c 0.02186,-0.006 0.04958,-0.0263 0.06017,-0.0584 0.0162,-0.0502 -0.01664,-0.0983 -0.0622,-0.10941 -0.04619,-0.0115 -0.08844,0.008 -0.104245,0.0562 -0.02159,0.0669 0.04694,0.12738 0.106276,0.11157"
     id="Fill-86"
     fill="#c51631"
     style="fill-rule:evenodd;stroke:none;stroke-width:0.125" /><path
     d="m 78.341279,907.10943 c 0.0044,-0.0194 -0.0031,-0.0389 -0.03325,-0.0409 -0.01891,-10e-4 -0.02863,0.008 -0.03341,0.0199 -0.02194,0.0531 0.05555,0.0676 0.06666,0.021"
     id="Fill-88"
     fill="#c51631"
     style="fill-rule:evenodd;stroke:none;stroke-width:0.125" /><path
     d="m 77.899345,906.9536 c 4.75e-4,-0.007 -0.0055,-0.0177 -0.01868,-0.0147 -0.03636,0.0149 0.0162,0.0491 0.01868,0.0147"
     id="Fill-90"
     fill="#c51631"
     style="fill-rule:evenodd;stroke:none;stroke-width:0.125" /><path
     d="m 82.312555,909.20516 c 0.14239,0.0503 0.29856,-0.0742 0.264395,-0.23584 -0.01065,-0.0501 -0.05965,-0.1257 -0.143505,-0.14869 -0.100665,-0.0277 -0.18683,0.0141 -0.232145,0.0986 -0.0647,0.11998 0.0086,0.24993 0.111255,0.28597"
     id="Fill-92"
     fill="#c51631"
     style="fill-rule:evenodd;stroke:none;stroke-width:0.125" /><path
     d="m 79.334019,908.15202 c 0.09071,0.0427 0.21713,0.0204 0.269054,-0.0907 0.03289,-0.0708 0.0219,-0.12927 2.37e-4,-0.17532 -0.02477,-0.0528 -0.0669,-0.0956 -0.143068,-0.11121 -0.08776,-0.0183 -0.178467,0.0248 -0.216692,0.10653 -0.05499,0.11773 0.0032,0.22934 0.09047,0.27067"
     id="Fill-94"
     fill="#c51631"
     style="fill-rule:evenodd;stroke:none;stroke-width:0.125" /><path
     d="m 78.945848,907.98611 c 0.08254,0.0292 0.183603,-0.005 0.219002,-0.10597 0.03317,-0.0952 -0.01892,-0.19738 -0.119973,-0.22289 -0.06853,-0.0172 -0.125031,0.004 -0.16242,0.0411 -0.09342,0.0927 -0.0534,0.24668 0.06339,0.28781"
     id="Fill-96"
     fill="#c51631"
     style="fill-rule:evenodd;stroke:none;stroke-width:0.125" /><path
     d="m 82.726625,909.31945 c 0.104565,0.048 0.216535,-0.0125 0.24198,-0.11894 0.022,-0.0921 -0.03375,-0.18497 -0.13367,-0.20672 -0.03275,-0.007 -0.05965,-0.006 -0.08199,5e-4 -0.04,0.0109 -0.0837,0.0374 -0.10926,0.0941 -0.0449,0.099 0.007,0.19583 0.08294,0.23107"
     id="Fill-98"
     fill="#c51631"
     style="fill-rule:evenodd;stroke:none;stroke-width:0.125" /><path
     d="m 78.636107,907.79191 c 0.108585,-0.0525 0.09063,-0.21737 -0.02843,-0.2436 -0.06252,-0.0137 -0.126344,0.0142 -0.149956,0.0824 -0.03898,0.11121 0.08091,0.20836 0.178387,0.16122"
     id="Fill-100"
     fill="#c51631"
     style="fill-rule:evenodd;stroke:none;stroke-width:0.125" /><path
     d="m 78.166742,907.6025 c 0.07247,-0.005 0.08167,-0.0998 0.04607,-0.13248 -0.0083,-0.007 -0.03026,-0.0167 -0.04607,-0.0186 -0.03194,-0.005 -0.05475,0.0118 -0.06252,0.0202 -0.05467,0.0599 6e-4,0.13516 0.06252,0.131"
     id="Fill-102"
     fill="#c51631"
     style="fill-rule:evenodd;stroke:none;stroke-width:0.125" /><path
     d="m 77.758212,907.38125 c 0.0035,-0.0128 -0.0039,-0.0245 -0.02031,-0.0253 -0.01839,-0.002 -0.0215,0.007 -0.02345,0.0152 -0.0077,0.0294 0.03636,0.0367 0.04376,0.01"
     id="Fill-104"
     fill="#c51631"
     style="fill-rule:evenodd;stroke:none;stroke-width:0.125" /><path
     d="m 78.790985,908.43817 c 0.100662,0.0339 0.215897,-0.0167 0.252251,-0.1259 0.03739,-0.11237 -0.02624,-0.22527 -0.135542,-0.25466 -0.105878,-0.0287 -0.207654,0.0286 -0.241141,0.12426 -0.03659,0.10517 0.01529,0.21974 0.124432,0.2563"
     id="Fill-106"
     fill="#c51631"
     style="fill-rule:evenodd;stroke:none;stroke-width:0.125" /><path
     d="m 82.519175,909.73984 c 0.10253,0.0887 0.259815,0.0511 0.31377,-0.067 0.05698,-0.12426 -0.01425,-0.25241 -0.139765,-0.28036 -0.09127,-0.0203 -0.183525,0.0238 -0.222985,0.10992 -0.044,0.097 -0.0053,0.19034 0.049,0.23748"
     id="Fill-108"
     fill="#c51631"
     style="fill-rule:evenodd;stroke:none;stroke-width:0.125" /><path
     d="m 78.380026,908.25362 c 0.07362,0.0249 0.172534,-0.006 0.204986,-0.10288 0.03042,-0.0909 -0.02218,-0.18025 -0.107829,-0.20532 -0.08533,-0.0245 -0.170184,0.0187 -0.198376,0.10008 -0.03241,0.0928 0.02166,0.18133 0.101219,0.20812"
     id="Fill-110"
     fill="#c51631"
     style="fill-rule:evenodd;stroke:none;stroke-width:0.125" /><path
     d="m 77.97455,908.05492 c 0.04607,0.0163 0.117465,2.5e-4 0.14052,-0.0699 0.02186,-0.067 -0.01843,-0.12574 -0.08059,-0.13968 -0.0354,-0.008 -0.05829,-10e-4 -0.07729,0.01 -0.01637,0.009 -0.03799,0.0254 -0.04986,0.0594 -0.02162,0.0621 0.01402,0.12162 0.06721,0.1404"
     id="Fill-112"
     fill="#c51631"
     style="fill-rule:evenodd;stroke:none;stroke-width:0.125" /><path
     d="m 77.572088,907.84663 c 0.06009,0.0213 0.09333,-0.0811 0.02126,-0.0908 -0.05901,-0.008 -0.06666,0.075 -0.02126,0.0908"
     id="Fill-114"
     fill="#c51631"
     style="fill-rule:evenodd;stroke:none;stroke-width:0.125" /><path
     d="m 77.180803,907.65273 c 3e-4,-0.006 -0.0055,-0.0175 -0.01875,-0.0146 -0.03636,0.015 0.01617,0.0493 0.01875,0.0146"
     id="Fill-116"
     fill="#c51631"
     style="fill-rule:evenodd;stroke:none;stroke-width:0.125" /><path
     d="m 78.247371,908.70294 c 0.07195,0.0167 0.161703,-0.0156 0.200725,-0.0991 0.05559,-0.11874 -0.0123,-0.23711 -0.130645,-0.26082 -0.05722,-0.0116 -0.103568,0.003 -0.139126,0.0278 -0.01441,0.01 -0.04118,0.0324 -0.05853,0.0696 -0.05778,0.12418 0.02278,0.23836 0.127579,0.26247"
     id="Fill-118"
     fill="#c51631"
     style="fill-rule:evenodd;stroke:none;stroke-width:0.125" /><path
     d="m 77.991075,908.41631 c 0.02429,-0.0729 -0.01588,-0.15262 -0.09568,-0.1718 -0.07131,-0.017 -0.135463,0.0146 -0.159673,0.0871 -0.05507,0.16507 0.199013,0.2535 0.255357,0.0847"
     id="Fill-120"
     fill="#c51631"
     style="fill-rule:evenodd;stroke:none;stroke-width:0.125" /><path
     d="m 77.394597,908.28028 c 0.03046,0.0231 0.0788,0.0195 0.101139,-0.01 0.03822,-0.0507 0.005,-0.10701 -0.04711,-0.11494 -0.02903,-0.004 -0.05308,0.009 -0.06351,0.023 -0.03317,0.044 -0.01047,0.0861 0.0095,0.10156"
     id="Fill-122"
     fill="#c51631"
     style="fill-rule:evenodd;stroke:none;stroke-width:0.125" /><path
     d="m 77.033196,908.07566 c 4.75e-4,-0.006 -0.0055,-0.0176 -0.01867,-0.0144 -0.03632,0.0149 0.01632,0.0488 0.01867,0.0144"
     id="Fill-124"
     fill="#c51631"
     style="fill-rule:evenodd;stroke:none;stroke-width:0.125" /><path
     d="m 78.043261,909.12203 c 0.115394,0.058 0.253724,10e-4 0.284702,-0.13571 0.02198,-0.0958 -0.03775,-0.20672 -0.156964,-0.23075 -0.0403,-0.008 -0.06482,-0.005 -0.0874,10e-4 -0.05583,0.0149 -0.122721,0.068 -0.140997,0.15462 -0.01799,0.0832 0.0354,0.17776 0.100661,0.21064"
     id="Fill-126"
     fill="#c51631"
     style="fill-rule:evenodd;stroke:none;stroke-width:0.125" /><path
     d="m 77.856126,908.849 c 0.03022,-0.0869 -0.01995,-0.1718 -0.104166,-0.19354 -0.02541,-0.006 -0.04256,-0.008 -0.06136,-0.005 -0.04762,0.007 -0.09692,0.0403 -0.117465,0.10179 -0.01154,0.0352 -0.0085,0.0737 2.38e-4,0.0984 0.03978,0.11465 0.231823,0.14533 0.282751,-10e-4"
     id="Fill-128"
     fill="#c51631"
     style="fill-rule:evenodd;stroke:none;stroke-width:0.125" /><path
     d="m 77.315191,908.73516 c 0.02186,-0.006 0.04966,-0.0265 0.05989,-0.0584 0.01624,-0.0501 -0.01645,-0.0981 -0.062,-0.10948 -0.04603,-0.0115 -0.08852,0.008 -0.104085,0.0562 -0.02159,0.067 0.04718,0.12771 0.106196,0.11165"
     id="Fill-130"
     fill="#c51631"
     style="fill-rule:evenodd;stroke:none;stroke-width:0.125" /><path
     d="m 76.891187,908.50605 c 0.0035,-0.013 -0.0042,-0.0245 -0.02023,-0.0255 -0.01847,-10e-4 -0.02166,0.007 -0.02377,0.0153 -0.0076,0.0293 0.03644,0.0365 0.044,0.0103"
     id="Fill-132"
     fill="#c51631"
     style="fill-rule:evenodd;stroke:none;stroke-width:0.125" /><path
     d="m 78.024303,909.17643 c -0.0878,-0.0183 -0.178666,0.0252 -0.216812,0.10673 -0.05491,0.11753 0.0032,0.22926 0.09067,0.27055 0.09059,0.0428 0.217011,0.0204 0.268935,-0.0908 0.03293,-0.0706 0.02194,-0.12887 2.37e-4,-0.17493 -0.02452,-0.053 -0.06689,-0.0957 -0.143027,-0.11157"
     id="Fill-134"
     fill="#c51631"
     style="fill-rule:evenodd;stroke:none;stroke-width:0.125" /><path
     d="m 77.59361,909.07219 c -0.06224,-0.0124 -0.123039,0.018 -0.152067,0.058 -0.02349,0.0317 -0.03034,0.0635 -0.03154,0.0896 -0.0029,0.0787 0.06236,0.15883 0.151907,0.16227 0.07116,0.003 0.157722,-0.0538 0.161385,-0.15262 0.0028,-0.0706 -0.04149,-0.13944 -0.129689,-0.15722"
     id="Fill-136"
     fill="#c51631"
     style="fill-rule:evenodd;stroke:none;stroke-width:0.125" /><path
     d="m 77.155741,909.16988 c 0.07359,-0.008 0.104404,-0.11189 0.05607,-0.16066 -0.0097,-0.01 -0.03341,-0.0218 -0.05702,-0.0254 -0.03743,-0.006 -0.06841,0.0148 -0.07697,0.0233 -0.02509,0.0252 -0.03007,0.0629 -0.02779,0.0806 0.0042,0.0412 0.05153,0.0885 0.105719,0.0822"
     id="Fill-138"
     fill="#c51631"
     style="fill-rule:evenodd;stroke:none;stroke-width:0.125" /><path
     d="m 76.721938,908.90023 c -0.01975,-0.002 -0.02509,0.01 -0.02772,0.0193 -0.0091,0.0332 0.04277,0.0511 0.05324,0.0136 0.005,-0.0183 -0.0058,-0.0315 -0.02553,-0.0329"
     id="Fill-140"
     fill="#c51631"
     style="fill-rule:evenodd;stroke:none;stroke-width:0.125" /><path
     d="m 77.886205,909.60259 c -0.07856,-0.0179 -0.14936,0.0127 -0.185754,0.0485 -0.10309,0.10224 -0.062,0.25378 0.03074,0.31357 0.104245,0.0675 0.249424,0.0236 0.294976,-0.0976 0.02421,-0.0647 0.0097,-0.12666 -0.01087,-0.16567 -0.02059,-0.0394 -0.06431,-0.0836 -0.129092,-0.0987"
     id="Fill-142"
     fill="#c51631"
     style="fill-rule:evenodd;stroke:none;stroke-width:0.125" /><path
     d="m 77.45759,909.49931 c -0.0426,-0.0108 -0.07327,-0.007 -0.102294,0.007 -0.0303,0.0138 -0.06634,0.0445 -0.08262,0.0928 -0.04273,0.12858 0.09194,0.24836 0.213707,0.1895 0.131679,-0.0636 0.103488,-0.2549 -0.02879,-0.28886"
     id="Fill-144"
     fill="#c51631"
     style="fill-rule:evenodd;stroke:none;stroke-width:0.125" /><path
     d="m 77.014298,909.4091 c -0.04814,-0.01 -0.09031,0.0124 -0.105639,0.061 -0.03823,0.11878 0.137494,0.16584 0.174684,0.0591 0.01712,-0.0494 -0.0076,-0.1074 -0.06905,-0.1201"
     id="Fill-146"
     fill="#c51631"
     style="fill-rule:evenodd;stroke:none;stroke-width:0.125" /><path
     d="m 76.574367,909.32328 c -0.01955,-0.002 -0.025,0.009 -0.02764,0.0193 -0.0093,0.0332 0.04288,0.0511 0.05316,0.0136 0.0051,-0.0183 -0.0058,-0.0317 -0.02553,-0.0328"
     id="Fill-148"
     fill="#c51631"
     style="fill-rule:evenodd;stroke:none;stroke-width:0.125" /><path
     d="m 77.747266,910.03927 c -0.05933,-0.018 -0.108068,-0.007 -0.144343,0.0127 -0.03544,0.019 -0.07677,0.0549 -0.09469,0.11245 -0.01549,0.0492 -0.0084,0.102 0.01115,0.14233 0.07155,0.14761 0.299754,0.13824 0.353907,-0.0239 0.01748,-0.0525 0.0071,-0.11253 -0.0095,-0.14681 -0.01923,-0.0395 -0.06307,-0.0804 -0.116549,-0.0968"
     id="Fill-150"
     fill="#c51631"
     style="fill-rule:evenodd;stroke:none;stroke-width:0.125" /><path
     d="m 77.306072,909.9343 c -0.07227,-0.0186 -0.146532,0.0189 -0.171498,0.0908 -0.02967,0.0853 0.01999,0.16083 0.08875,0.18502 0.06614,0.0233 0.154456,-0.005 0.184121,-0.089 0.02779,-0.0806 -0.01784,-0.16543 -0.101378,-0.18682"
     id="Fill-152"
     fill="#c51631"
     style="fill-rule:evenodd;stroke:none;stroke-width:0.125" /><path
     d="m 76.857026,909.8448 c -0.08095,-0.0112 -0.125428,0.10705 -0.05184,0.14894 0.04392,0.0249 0.09373,0.007 0.112248,-0.0267 0.03102,-0.056 -0.0027,-0.11402 -0.06041,-0.12223"
     id="Fill-154"
     fill="#c51631"
     style="fill-rule:evenodd;stroke:none;stroke-width:0.125" /><path
     d="m 76.426859,909.75416 c -0.01851,-0.002 -0.02194,0.007 -0.02389,0.0154 -0.0072,0.0289 0.03675,0.0365 0.04408,0.01 0.0035,-0.0128 -0.0039,-0.0244 -0.02018,-0.0255"
     id="Fill-156"
     fill="#c51631"
     style="fill-rule:evenodd;stroke:none;stroke-width:0.125" /><path
     d="m 77.585949,910.4787 c -0.09095,-0.0227 -0.175958,0.0205 -0.207096,0.11017 -0.03449,0.0987 0.01971,0.19271 0.106713,0.22326 0.07856,0.0279 0.187028,-10e-4 0.222984,-0.10957 0.03309,-0.0993 -0.02437,-0.19895 -0.122601,-0.22386"
     id="Fill-158"
     fill="#c51631"
     style="fill-rule:evenodd;stroke:none;stroke-width:0.125" /><path
     d="m 77.148861,910.37773 c -0.0616,-0.0135 -0.122243,0.0175 -0.143825,0.0793 -0.02373,0.0683 0.01505,0.13912 0.0788,0.16055 0.05371,0.0181 0.129808,-0.002 0.156168,-0.0776 0.02557,-0.073 -0.01704,-0.14621 -0.09114,-0.16215"
     id="Fill-160"
     fill="#c51631"
     style="fill-rule:evenodd;stroke:none;stroke-width:0.125" /><path
     d="m 76.702009,910.28923 c -0.02469,-0.003 -0.04109,0.01 -0.04977,0.0221 -0.04886,0.0693 0.05081,0.13852 0.09461,0.0761 0.03241,-0.0459 0.0059,-0.0936 -0.04484,-0.0981"
     id="Fill-162"
     fill="#c51631"
     style="fill-rule:evenodd;stroke:none;stroke-width:0.125" /><path
     d="m 81.663503,912.37579 c -0.04802,-0.0122 -0.09266,-0.007 -0.126742,0.008 -0.03978,0.0184 -0.08091,0.0579 -0.09943,0.11101 -0.03628,0.10416 0.0178,0.2098 0.118183,0.24328 0.097,0.0326 0.205542,-0.0213 0.23907,-0.11741 0.03731,-0.10705 -0.02178,-0.21706 -0.131083,-0.24517"
     id="Fill-164"
     fill="#c51631"
     style="fill-rule:evenodd;stroke:none;stroke-width:0.125" /><path
     d="m 77.856126,911.0358 c -0.0485,-0.0106 -0.08828,-10e-4 -0.121527,0.0156 -0.03285,0.0168 -0.06128,0.0336 -0.08565,0.0867 -0.05471,0.1199 0.01613,0.23852 0.129091,0.26567 0.08418,0.0202 0.173769,-0.0235 0.210282,-0.10372 0.05459,-0.11986 -0.01469,-0.23884 -0.132197,-0.26419"
     id="Fill-166"
     fill="#c51631"
     style="fill-rule:evenodd;stroke:none;stroke-width:0.125" /><path
     d="m 77.420085,910.9243 c -0.05778,-0.0107 -0.115156,0.0114 -0.148324,0.062 -0.04539,0.0694 -0.02182,0.15002 0.01839,0.18958 0.08561,0.0847 0.227881,0.0411 0.252688,-0.0809 0.01505,-0.075 -0.03253,-0.15342 -0.12276,-0.17068"
     id="Fill-168"
     fill="#c51631"
     style="fill-rule:evenodd;stroke:none;stroke-width:0.125" /><path
     d="m 76.99151,910.82919 c -0.0467,-0.009 -0.09437,0.0119 -0.108864,0.0702 -0.0092,0.0357 0.0072,0.0891 0.05427,0.10937 0.05459,0.0233 0.115474,-0.005 0.130804,-0.0654 0.0131,-0.0525 -0.01987,-0.10388 -0.07621,-0.11421"
     id="Fill-170"
     fill="#c51631"
     style="fill-rule:evenodd;stroke:none;stroke-width:0.125" /><path
     d="m 76.55339,910.73823 c -0.01891,-0.001 -0.02843,0.008 -0.03317,0.0201 -0.02182,0.053 0.05559,0.067 0.06642,0.0208 0.0045,-0.019 -0.0029,-0.0385 -0.03325,-0.0409"
     id="Fill-172"
     fill="#c51631"
     style="fill-rule:evenodd;stroke:none;stroke-width:0.125" /><path
     d="m 78.562769,911.74142 c -0.05451,-0.0127 -0.105041,-0.005 -0.138887,0.012 -0.045,0.0217 -0.08899,0.0675 -0.10743,0.12683 -0.0448,0.14441 0.08342,0.29983 0.242415,0.26587 0.08868,-0.019 0.185515,-0.12114 0.15812,-0.24941 -0.01346,-0.0636 -0.0665,-0.13444 -0.154218,-0.15526"
     id="Fill-174"
     fill="#c51631"
     style="fill-rule:evenodd;stroke:none;stroke-width:0.125" /><path
     d="m 80.668096,912.48385 c -0.02656,-0.006 -0.04957,-0.008 -0.06901,-0.006 -0.05937,0.006 -0.131242,0.0464 -0.164251,0.1225 -0.04165,0.0957 -0.0046,0.18409 0.03651,0.22807 0.09943,0.10628 0.282154,0.0801 0.34212,-0.0571 0.01556,-0.0366 0.02285,-0.0714 0.01664,-0.11618 -0.0084,-0.0604 -0.05997,-0.14801 -0.162022,-0.17139"
     id="Fill-176"
     fill="#c51631"
     style="fill-rule:evenodd;stroke:none;stroke-width:0.125" /><path
     d="m 78.140223,911.61369 c -0.09803,-0.0266 -0.193638,0.0204 -0.226408,0.11926 -0.03496,0.10516 0.02429,0.20484 0.115394,0.23692 0.08541,0.0302 0.200924,-0.003 0.238871,-0.11742 0.03392,-0.1022 -0.02246,-0.21016 -0.127857,-0.23876"
     id="Fill-178"
     fill="#c51631"
     style="fill-rule:evenodd;stroke:none;stroke-width:0.125" /><path
     d="m 81.089109,912.65357 c -0.06252,-0.0145 -0.114677,0.002 -0.152306,0.0286 -0.01266,0.009 -0.04567,0.0395 -0.06267,0.0814 -0.03269,0.0816 -0.0085,0.15249 0.04033,0.20255 0.09242,0.0954 0.269054,0.0729 0.312973,-0.0806 0.01417,-0.0503 5e-4,-0.10925 -0.01688,-0.14113 -0.0194,-0.0363 -0.06048,-0.0767 -0.121446,-0.0909"
     id="Fill-180"
     fill="#c51631"
     style="fill-rule:evenodd;stroke:none;stroke-width:0.125" /><path
     d="m 81.507008,912.83265 c -0.08712,-0.0222 -0.160707,0.0219 -0.187307,0.0986 -0.04006,0.11466 0.05284,0.21281 0.153382,0.21085 0.0561,-10e-4 0.119815,-0.0384 0.143308,-0.10889 0.03023,-0.09 -0.02185,-0.17804 -0.109383,-0.20055"
     id="Fill-182"
     fill="#c51631"
     style="fill-rule:evenodd;stroke:none;stroke-width:0.125" /><path
     d="m 77.701829,911.49359 c -0.05403,-0.0117 -0.100144,0.006 -0.128773,0.0289 -0.0072,0.006 -0.02983,0.0249 -0.04408,0.0588 -0.04392,0.10312 0.02361,0.19355 0.104325,0.21449 0.06586,0.0172 0.14685,-0.0133 0.178665,-0.0882 0.04113,-0.0969 -0.01374,-0.19319 -0.110138,-0.21393"
     id="Fill-184"
     fill="#c51631"
     style="fill-rule:evenodd;stroke:none;stroke-width:0.125" /><path
     d="m 77.264155,911.38683 c -0.03612,-0.006 -0.06642,0.004 -0.08637,0.0201 -0.0028,0.003 -0.01975,0.0188 -0.02871,0.0375 -0.03596,0.0743 0.01107,0.14637 0.07848,0.16047 0.05427,0.0113 0.114837,-0.021 0.129012,-0.0901 0.01131,-0.055 -0.02461,-0.11637 -0.09242,-0.12803"
     id="Fill-186"
     fill="#c51631"
     style="fill-rule:evenodd;stroke:none;stroke-width:0.125" /><path
     d="m 76.837973,911.29239 c -0.07255,-0.0154 -0.09266,0.0893 -0.02763,0.10944 0.0741,0.0235 0.101697,-0.0939 0.02763,-0.10944"
     id="Fill-188"
     fill="#c51631"
     style="fill-rule:evenodd;stroke:none;stroke-width:0.125" /><path
     d="m 76.400805,911.18351 c -0.03619,0.0145 0.01637,0.0487 0.01892,0.0142 4e-4,-0.006 -0.0055,-0.0176 -0.01892,-0.0142"
     id="Fill-190"
     fill="#c51631"
     style="fill-rule:evenodd;stroke:none;stroke-width:0.125" /><path
     d="m 79.251407,912.47524 c -0.05053,-0.0114 -0.09333,-0.003 -0.12937,0.0157 -0.0348,0.0181 -0.06674,0.0444 -0.088,0.0936 -0.04671,0.10808 0.0097,0.21645 0.09855,0.25489 0.09429,0.0408 0.227125,0.006 0.263161,-0.12722 0.02875,-0.10516 -0.03162,-0.21101 -0.144343,-0.23688"
     id="Fill-193"
     fill="#c51631"
     style="fill-rule:evenodd;stroke:none;stroke-width:0.125" /><path
     d="m 79.674384,912.6244 c -0.05037,-0.0115 -0.09357,-0.003 -0.129171,0.0156 -0.03496,0.0183 -0.06709,0.0446 -0.08828,0.0936 -0.04678,0.108 0.0098,0.21629 0.09863,0.25497 0.09437,0.0408 0.227165,0.006 0.2634,-0.12731 0.02863,-0.10516 -0.03209,-0.21112 -0.144581,-0.23687"
     id="Fill-195"
     fill="#c51631"
     style="fill-rule:evenodd;stroke:none;stroke-width:0.125" /><path
     d="m 78.826157,912.33328 c -0.06586,-0.0143 -0.127857,0.0104 -0.162818,0.0435 -0.0123,0.0113 -0.02926,0.0307 -0.04117,0.0571 -0.04842,0.10624 0.0053,0.21052 0.08744,0.24845 0.120769,0.0558 0.235646,-0.0215 0.260971,-0.12835 0.02282,-0.0948 -0.03472,-0.19723 -0.144422,-0.22074"
     id="Fill-197"
     fill="#c51631"
     style="fill-rule:evenodd;stroke:none;stroke-width:0.125" /><path
     d="m 80.092654,912.77989 c -0.06558,-0.0141 -0.127539,0.0104 -0.162938,0.0433 -0.01179,0.0115 -0.02907,0.0311 -0.04106,0.0575 -0.0485,0.10596 0.0053,0.2106 0.08752,0.24829 0.120849,0.0557 0.235646,-0.0215 0.26105,-0.12819 0.0225,-0.0952 -0.03472,-0.19731 -0.144581,-0.22086"
     id="Fill-199"
     fill="#c51631"
     style="fill-rule:evenodd;stroke:none;stroke-width:0.125" /><path
     d="m 78.40297,912.19992 c -0.06212,-0.0136 -0.117823,0.007 -0.150276,0.0374 -0.01206,0.0111 -0.03162,0.0345 -0.04281,0.0618 -0.03994,0.0986 0.01207,0.18982 0.0911,0.22334 0.08374,0.0351 0.185276,-10e-4 0.221948,-0.0915 0.04157,-0.10296 -0.0162,-0.20877 -0.119973,-0.23099"
     id="Fill-201"
     fill="#c51631"
     style="fill-rule:evenodd;stroke:none;stroke-width:0.125" /><path
     d="m 80.50814,912.94235 c -0.05519,-0.011 -0.09218,10e-4 -0.127777,0.0266 -0.01406,0.01 -0.0393,0.0269 -0.05698,0.0649 -0.04786,0.10228 0.008,0.19615 0.07848,0.22927 0.08019,0.038 0.184837,0.0131 0.227802,-0.0788 0.05025,-0.10761 -0.0099,-0.21934 -0.121527,-0.24196"
     id="Fill-203"
     fill="#c51631"
     style="fill-rule:evenodd;stroke:none;stroke-width:0.125" /><path
     d="m 77.971635,912.07447 c -0.07012,-0.0141 -0.13383,0.0208 -0.160389,0.0816 -0.04747,0.10853 0.04463,0.21969 0.152943,0.205 0.02983,-0.004 0.06056,-0.0205 0.07932,-0.0382 0.0886,-0.0851 0.03775,-0.22662 -0.07187,-0.24837"
     id="Fill-205"
     fill="#c51631"
     style="fill-rule:evenodd;stroke:none;stroke-width:0.125" /><path
     d="m 80.981627,913.13601 c -0.01342,-0.009 -0.03854,-0.0169 -0.05869,-0.0208 -0.06112,-0.0117 -0.116867,0.0179 -0.144979,0.06 -0.05459,0.0822 -0.01035,0.18049 0.05029,0.2118 0.08565,0.0441 0.16895,0.002 0.199452,-0.0571 0.04293,-0.0847 6e-4,-0.16263 -0.04607,-0.19395"
     id="Fill-207"
     fill="#c51631"
     style="fill-rule:evenodd;stroke:none;stroke-width:0.125" /><path
     d="m 77.54652,911.96164 c -0.03552,-0.008 -0.05825,-5e-4 -0.07717,0.01 -0.01656,0.009 -0.03807,0.0258 -0.0499,0.0598 -0.02151,0.062 0.01417,0.12154 0.06717,0.14 0.04611,0.0165 0.117505,0.001 0.14048,-0.0698 0.0217,-0.0666 -0.01816,-0.12563 -0.08059,-0.13972"
     id="Fill-209"
     fill="#c51631"
     style="fill-rule:evenodd;stroke:none;stroke-width:0.125" /><path
     d="m 81.336613,913.29823 c -0.03603,-0.006 -0.0661,0.004 -0.08625,0.0201 -0.0026,0.002 -0.0197,0.0188 -0.02843,0.0376 -0.03612,0.0743 0.0109,0.14625 0.07848,0.16034 0.05419,0.0116 0.114518,-0.0211 0.128933,-0.0899 0.01135,-0.0551 -0.02452,-0.11642 -0.09274,-0.12803"
     id="Fill-211"
     fill="#c51631"
     style="fill-rule:evenodd;stroke:none;stroke-width:0.125" /><path
     d="m 77.105582,911.8566 c -0.02764,-0.004 -0.05029,0.0109 -0.05949,0.0268 -0.04695,0.0819 0.07187,0.13191 0.107669,0.0699 0.02736,-0.0482 -0.0021,-0.091 -0.04818,-0.0967"
     id="Fill-213"
     fill="#c51631"
     style="fill-rule:evenodd;stroke:none;stroke-width:0.125" /><path
     d="m 76.681283,911.74936 c -0.01851,-10e-4 -0.02182,0.007 -0.02397,0.0154 -0.0074,0.0291 0.03659,0.0367 0.04392,0.0102 0.0038,-0.0128 -0.0038,-0.0245 -0.01995,-0.0255"
     id="Fill-215"
     fill="#c51631"
     style="fill-rule:evenodd;stroke:none;stroke-width:0.125" /><path
     d="m 79.084297,912.94712 c -0.05427,-0.0103 -0.103767,0.012 -0.132038,0.0463 -0.0405,0.0486 -0.03611,0.12518 -0.02062,0.1575 0.05356,0.11177 0.242733,0.10893 0.272279,-0.0397 0.01469,-0.0733 -0.03576,-0.14825 -0.119615,-0.16411"
     id="Fill-217"
     fill="#c51631"
     style="fill-rule:evenodd;stroke:none;stroke-width:0.125" /><path
     d="m 79.507349,913.0962 c -0.05427,-0.0101 -0.103926,0.012 -0.132277,0.0464 -0.04033,0.0485 -0.03587,0.1251 -0.02034,0.15726 0.05352,0.11221 0.242535,0.10957 0.272279,-0.0394 0.01441,-0.0733 -0.03579,-0.14841 -0.119655,-0.16427"
     id="Fill-219"
     fill="#c51631"
     style="fill-rule:evenodd;stroke:none;stroke-width:0.125" /><path
     d="m 78.672967,912.81008 c -0.07092,-0.0173 -0.135462,0.0147 -0.159473,0.087 -0.05519,0.16532 0.199013,0.2535 0.255396,0.085 0.02421,-0.0732 -0.01605,-0.15293 -0.09592,-0.17196"
     id="Fill-221"
     fill="#c51631"
     style="fill-rule:evenodd;stroke:none;stroke-width:0.125" /><path
     d="m 79.932619,913.25419 c -0.04647,-0.009 -0.08899,0.007 -0.112288,0.027 -0.0038,0.003 -0.02107,0.0162 -0.03449,0.0459 -0.03587,0.0785 0.0068,0.17248 0.09389,0.19243 0.05312,0.0122 0.120531,-0.0104 0.150036,-0.0745 0.03938,-0.0867 -0.0083,-0.1736 -0.09716,-0.19082"
     id="Fill-223"
     fill="#c51631"
     style="fill-rule:evenodd;stroke:none;stroke-width:0.125" /><path
     d="m 80.352115,913.42064 c -0.02987,-0.006 -0.05093,-0.003 -0.06701,0.003 -0.02174,0.008 -0.05607,0.0311 -0.06984,0.0787 -0.03651,0.12803 0.129211,0.19558 0.201641,0.11109 0.02054,-0.0241 0.03062,-0.0586 0.02951,-0.0852 -0.0016,-0.0485 -0.03417,-0.0944 -0.09429,-0.10773"
     id="Fill-225"
     fill="#c51631"
     style="fill-rule:evenodd;stroke:none;stroke-width:0.125" /><path
     d="m 78.231718,912.67559 c -0.05957,-0.009 -0.118102,0.0324 -0.130167,0.10016 -0.0055,0.0332 0.01127,0.0722 0.02855,0.0923 0.07888,0.0882 0.221989,0.0153 0.203353,-0.0982 -0.0077,-0.0458 -0.03906,-0.0848 -0.101736,-0.0943"
     id="Fill-227"
     fill="#c51631"
     style="fill-rule:evenodd;stroke:none;stroke-width:0.125" /><path
     d="m 77.814595,912.5551 c -0.04722,-0.0109 -0.08884,0.009 -0.104643,0.0585 -0.03472,0.10664 0.130565,0.16992 0.169905,0.0573 0.01875,-0.0541 -0.01449,-0.10412 -0.06526,-0.11586"
     id="Fill-229"
     fill="#c51631"
     style="fill-rule:evenodd;stroke:none;stroke-width:0.125" /><path
     d="m 80.761227,913.59435 c -0.0467,-0.007 -0.09226,0.0208 -0.101139,0.0782 -0.01434,0.0912 0.121765,0.14337 0.16895,0.0596 0.03528,-0.0619 0,-0.12823 -0.06781,-0.1378"
     id="Fill-231"
     fill="#c51631"
     style="fill-rule:evenodd;stroke:none;stroke-width:0.125" /><path
     d="m 77.38252,912.43981 c -0.02397,-0.004 -0.04344,0.007 -0.05061,0.0167 -0.04981,0.0642 0.04671,0.12262 0.08533,0.0724 0.03066,-0.0395 0.0044,-0.0828 -0.03472,-0.0891"
     id="Fill-233"
     fill="#c51631"
     style="fill-rule:evenodd;stroke:none;stroke-width:0.125" /><path
     d="m 81.179708,913.77886 c -0.02397,-0.004 -0.0432,0.007 -0.05053,0.0167 -0.05005,0.0641 0.04659,0.12263 0.08541,0.0724 0.0307,-0.0393 0.0043,-0.0826 -0.03488,-0.0891"
     id="Fill-235"
     fill="#c51631"
     style="fill-rule:evenodd;stroke:none;stroke-width:0.125" /><path
     d="m 76.953479,912.323 c -0.01868,-10e-4 -0.02186,0.007 -0.02397,0.0154 -0.0074,0.0293 0.03668,0.0366 0.044,0.0105 0.0037,-0.0133 -0.0037,-0.0247 -0.02003,-0.0259"
     id="Fill-237"
     fill="#c51631"
     style="fill-rule:evenodd;stroke:none;stroke-width:0.125" /><path
     d="m 83.6828,908.03771 c 2.5e-4,-0.007 -0.0055,-0.0178 -0.0187,-0.0145 -0.0363,0.0153 0.0161,0.0494 0.0187,0.0145"
     id="Fill-239"
     fill="#c51631"
     style="fill-rule:evenodd;stroke:none;stroke-width:0.125" /><path
     d="m 83.558305,908.4635 c 0.0015,-0.0202 -0.0166,-0.0367 -0.0396,-0.0379 -0.01835,-10e-4 -0.0281,0.009 -0.03275,0.0177 -0.03215,0.0627 0.06654,0.081 0.07239,0.0201"
     id="Fill-241"
     fill="#c51631"
     style="fill-rule:evenodd;stroke:none;stroke-width:0.125" /><path
     d="m 83.957603,908.6124 c 2.5e-4,-0.007 -0.005,-0.0177 -0.0189,-0.0145 -0.03635,0.0148 0.01645,0.0488 0.0189,0.0145"
     id="Fill-243"
     fill="#c51631"
     style="fill-rule:evenodd;stroke:none;stroke-width:0.125" /><path
     d="m 83.376145,908.97788 c 0.01765,-10e-4 0.04645,-0.0131 0.06005,-0.0291 0.05137,-0.0597 0.01265,-0.13571 -0.0542,-0.14661 -0.0391,-0.006 -0.06403,0.01 -0.07733,0.0258 -0.02185,0.0249 -0.02365,0.0548 -0.02315,0.066 0.001,0.0417 0.04525,0.0857 0.0946,0.0839"
     id="Fill-245"
     fill="#c51631"
     style="fill-rule:evenodd;stroke:none;stroke-width:0.125" /><path
     d="m 83.832935,909.03815 c 0.002,-0.0202 -0.0164,-0.0367 -0.03955,-0.0379 -0.01845,-0.001 -0.0282,0.009 -0.03265,0.0177 -0.03245,0.0626 0.06633,0.081 0.07219,0.0203"
     id="Fill-247"
     fill="#c51631"
     style="fill-rule:evenodd;stroke:none;stroke-width:0.125" /><path
     d="m 83.17941,909.43648 c 0.06064,0.0214 0.142785,-0.006 0.16895,-0.0834 0.0242,-0.073 -0.0179,-0.14725 -0.08964,-0.16707 -0.0429,-0.0119 -0.06749,-0.006 -0.09544,0.009 -0.0215,0.0112 -0.05192,0.0352 -0.06495,0.0726 -0.0269,0.0774 0.01865,0.14721 0.08107,0.1692"
     id="Fill-249"
     fill="#c51631"
     style="fill-rule:evenodd;stroke:none;stroke-width:0.125" /><path
     d="m 83.71785,909.4885 c 0.01815,-0.048 -0.01095,-0.0942 -0.05885,-0.10304 -0.04065,-0.007 -0.07498,0.0102 -0.08768,0.054 -0.02505,0.0872 0.11141,0.14288 0.14653,0.049"
     id="Fill-251"
     fill="#c51631"
     style="fill-rule:evenodd;stroke:none;stroke-width:0.125" /><path
     d="m 84.088743,909.61387 c 0.004,-0.0128 -0.004,-0.0246 -0.0203,-0.0255 -0.0187,-0.002 -0.0217,0.007 -0.0237,0.0151 -0.008,0.0292 0.0363,0.0367 0.044,0.0103"
     id="Fill-253"
     fill="#c51631"
     style="fill-rule:evenodd;stroke:none;stroke-width:0.125" /><path
     d="m 82.995345,909.88102 c 0.08875,0.0471 0.18631,0.005 0.22298,-0.0646 0.02585,-0.0496 0.0187,-0.1104 0.0084,-0.13756 -0.0153,-0.0408 -0.0472,-0.079 -0.1009,-0.0965 -0.05307,-0.0177 -0.09827,-0.009 -0.13335,0.0113 -0.0089,0.005 -0.04055,0.023 -0.0616,0.0632 -0.03985,0.0763 -0.0198,0.17992 0.06446,0.22426"
     id="Fill-255"
     fill="#c51631"
     style="fill-rule:evenodd;stroke:none;stroke-width:0.125" /><path
     d="m 83.46286,909.99304 c 0.05615,0.0186 0.119095,-0.009 0.14044,-0.0699 0.02135,-0.061 -0.0069,-0.12851 -0.08119,-0.14549 -0.0282,-0.006 -0.05559,-0.004 -0.07645,0.008 -0.08238,0.0436 -0.07864,0.17621 0.0172,0.20777"
     id="Fill-257"
     fill="#c51631"
     style="fill-rule:evenodd;stroke:none;stroke-width:0.125" /><path
     d="m 83.90415,910.08237 c 0.06211,0.0196 0.09265,-0.0846 0.0203,-0.0965 -0.06399,-0.0102 -0.07279,0.0798 -0.0203,0.0965"
     id="Fill-259"
     fill="#c51631"
     style="fill-rule:evenodd;stroke:none;stroke-width:0.125" /><path
     d="m 82.866245,910.33463 c 0.08385,0.0331 0.200485,-0.009 0.235605,-0.11597 0.03465,-0.10476 -0.0206,-0.21049 -0.131045,-0.23724 -0.05013,-0.0122 -0.09668,-0.005 -0.13172,0.0147 -0.03265,0.0177 -0.06781,0.0509 -0.08589,0.10236 -0.0375,0.10741 0.02165,0.19983 0.113045,0.23616"
     id="Fill-261"
     fill="#c51631"
     style="fill-rule:evenodd;stroke:none;stroke-width:0.125" /><path
     d="m 83.36291,910.44613 c 0.06454,-0.005 0.13351,-0.0732 0.123075,-0.15582 -0.0074,-0.0567 -0.0443,-0.10196 -0.11575,-0.11497 -0.06586,-0.012 -0.13853,0.0267 -0.155255,0.11229 -0.01565,0.0811 0.05909,0.16515 0.14793,0.1585"
     id="Fill-263"
     fill="#c51631"
     style="fill-rule:evenodd;stroke:none;stroke-width:0.125" /><path
     d="m 83.74581,910.52806 c 0.03815,0.0135 0.08259,-0.01 0.09544,-0.0459 0.01495,-0.0431 -0.0138,-0.0867 -0.05371,-0.0961 -0.08844,-0.0204 -0.12706,0.11181 -0.04175,0.14197"
     id="Fill-265"
     fill="#c51631"
     style="fill-rule:evenodd;stroke:none;stroke-width:0.125" /><path
     d="m 82.723065,910.77499 c 0.08175,0.0249 0.16047,-0.007 0.205785,-0.0599 0.03375,-0.0397 0.04955,-0.0932 0.0478,-0.1372 -0.003,-0.0793 -0.05387,-0.16099 -0.152185,-0.18369 -0.08007,-0.0187 -0.15346,0.0118 -0.19567,0.061 -0.09815,0.11493 -0.03325,0.2814 0.09429,0.31985"
     id="Fill-267"
     fill="#c51631"
     style="fill-rule:evenodd;stroke:none;stroke-width:0.125" /><path
     d="m 83.089365,910.83779 c 0.07685,0.0833 0.21745,0.0568 0.255835,-0.053 0.0295,-0.0847 -0.0189,-0.1742 -0.10568,-0.19643 -0.10237,-0.0263 -0.205225,0.0563 -0.18862,0.16988 0.0035,0.0245 0.01855,0.058 0.03845,0.0796"
     id="Fill-269"
     fill="#c51631"
     style="fill-rule:evenodd;stroke:none;stroke-width:0.125" /><path
     d="m 83.706985,910.91241 c 0.01875,-0.0542 -0.0147,-0.10416 -0.06514,-0.11585 -0.04735,-0.0111 -0.08884,0.009 -0.1048,0.0585 -0.0345,0.10656 0.130645,0.16999 0.169945,0.0573"
     id="Fill-271"
     fill="#c51631"
     style="fill-rule:evenodd;stroke:none;stroke-width:0.125" /><path
     d="m 84.072003,911.03853 c 0.005,-0.0183 -0.006,-0.0316 -0.0255,-0.0327 -0.0196,-0.002 -0.0251,0.009 -0.028,0.0192 -0.009,0.0329 0.0431,0.051 0.0535,0.0136"
     id="Fill-273"
     fill="#c51631"
     style="fill-rule:evenodd;stroke:none;stroke-width:0.125" /><path
     d="m 82.74922,911.1771 c 0.0616,-0.0451 0.09887,-0.14321 0.07748,-0.22214 -0.0143,-0.0528 -0.06721,-0.12218 -0.153855,-0.14181 -0.0314,-0.007 -0.06439,-0.007 -0.08884,-0.003 -0.0939,0.0202 -0.181935,0.13516 -0.14948,0.25526 0.03355,0.12482 0.202635,0.1935 0.314685,0.11105"
     id="Fill-275"
     fill="#c51631"
     style="fill-rule:evenodd;stroke:none;stroke-width:0.125" /><path
     d="m 83.12219,911.30333 c 0.07327,-0.0357 0.108225,-0.141 0.0741,-0.21268 -0.01665,-0.0349 -0.05519,-0.0722 -0.110295,-0.084 -0.04335,-0.01 -0.0763,-0.002 -0.10114,0.009 -0.02845,0.0137 -0.05786,0.0387 -0.0753,0.0795 -0.0612,0.14101 0.0886,0.26755 0.212635,0.20772"
     id="Fill-277"
     fill="#c51631"
     style="fill-rule:evenodd;stroke:none;stroke-width:0.125" /><path
     d="m 83.483605,911.21303 c -0.04775,-0.007 -0.09648,0.0247 -0.106275,0.0845 -0.005,0.031 0.01595,0.0765 0.04415,0.0929 0.04715,0.0268 0.09855,0.0141 0.12503,-0.0173 0.05152,-0.0613 0.0159,-0.14901 -0.06292,-0.16011"
     id="Fill-279"
     fill="#c51631"
     style="fill-rule:evenodd;stroke:none;stroke-width:0.125" /><path
     d="m 83.895205,911.42453 c -0.0608,10e-4 -0.01055,0.10973 0.0316,0.0457 2.5e-4,-0.002 0.001,-0.003 0.0015,-0.005 0.002,-0.0217 -0.01,-0.0413 -0.03315,-0.041"
     id="Fill-281"
     fill="#c51631"
     style="fill-rule:evenodd;stroke:none;stroke-width:0.125" /><path
     d="m 82.519915,911.23685 c -0.08745,-0.0182 -0.17839,0.0252 -0.216535,0.10673 -0.05511,0.11769 0.003,0.2295 0.09039,0.27067 0.09079,0.0431 0.21709,0.0201 0.26893,-0.0907 0.03325,-0.0708 0.02195,-0.12891 8e-5,-0.17517 -0.02425,-0.053 -0.06674,-0.0957 -0.142865,-0.11157"
     id="Fill-283"
     fill="#c51631"
     style="fill-rule:evenodd;stroke:none;stroke-width:0.125" /><path
     d="m 82.93268,911.4302 c -0.06211,-0.0125 -0.1228,0.0181 -0.15183,0.0578 -0.0235,0.032 -0.03035,0.0636 -0.0314,0.0899 -0.003,0.0785 0.06204,0.15871 0.15187,0.16235 0.07091,0.003 0.1574,-0.054 0.161305,-0.15286 0.003,-0.0702 -0.04165,-0.13948 -0.12993,-0.15714"
     id="Fill-285"
     fill="#c51631"
     style="fill-rule:evenodd;stroke:none;stroke-width:0.125" /><path
     d="m 83.343055,911.63857 c -0.0467,-0.009 -0.09437,0.012 -0.109145,0.0705 -0.0089,0.0355 0.0074,0.0892 0.05439,0.10893 0.05475,0.0235 0.11555,-0.005 0.13112,-0.0651 0.01295,-0.0524 -0.02025,-0.10396 -0.07637,-0.11437"
     id="Fill-287"
     fill="#c51631"
     style="fill-rule:evenodd;stroke:none;stroke-width:0.125" /><path
     d="m 83.722455,911.89734 c 0.0123,0.0192 0.04,0.0212 0.05698,-0.004 5e-4,-0.002 10e-4,-0.003 0.0015,-0.005 0.01315,-0.0611 -0.09007,-0.0408 -0.05854,0.009"
     id="Fill-289"
     fill="#c51631"
     style="fill-rule:evenodd;stroke:none;stroke-width:0.125" /><path
     d="m 82.37629,911.67169 c -0.05053,-0.0114 -0.09358,-0.004 -0.129415,0.0156 -0.0347,0.0182 -0.06709,0.0446 -0.08804,0.0936 -0.04679,0.10837 0.0096,0.21649 0.09831,0.25502 0.09445,0.0409 0.227365,0.006 0.26348,-0.12731 0.0287,-0.10516 -0.03185,-0.2112 -0.14434,-0.23687"
     id="Fill-291"
     fill="#c51631"
     style="fill-rule:evenodd;stroke:none;stroke-width:0.125" /><path
     d="m 82.840015,911.88585 c -0.01395,-0.009 -0.0388,-0.0168 -0.05885,-0.0208 -0.06137,-0.0116 -0.11695,0.0181 -0.14506,0.0603 -0.05403,0.0814 -0.01105,0.17993 0.05029,0.21144 0.08565,0.0443 0.16887,0.003 0.19925,-0.0569 0.0432,-0.0848 0.001,-0.16259 -0.04565,-0.19407"
     id="Fill-293"
     fill="#c51631"
     style="fill-rule:evenodd;stroke:none;stroke-width:0.125" /><path
     d="m 83.185765,912.07419 c -0.01925,-0.003 -0.03895,0.002 -0.05053,0.009 -0.01215,0.007 -0.01685,0.008 -0.0278,0.0273 -0.04215,0.0741 0.02225,0.13364 0.07809,0.13112 0.01915,-0.001 0.0433,-0.0139 0.05403,-0.0263 0.05184,-0.0595 0.0118,-0.1322 -0.05379,-0.14093"
     id="Fill-295"
     fill="#c51631"
     style="fill-rule:evenodd;stroke:none;stroke-width:0.125" /><path
     d="m 83.60316,912.28498 c -0.01855,-0.002 -0.02185,0.007 -0.0238,0.0154 -0.0078,0.029 0.03635,0.0363 0.044,0.0104 0.0035,-0.0131 -0.004,-0.0246 -0.02015,-0.0258"
     id="Fill-297"
     fill="#c51631"
     style="fill-rule:evenodd;stroke:none;stroke-width:0.125" /><path
     d="m 82.23939,912.11729 c -0.0287,-0.009 -0.05455,-0.0122 -0.07319,-0.0103 -0.06144,0.007 -0.107909,0.0416 -0.136022,0.0956 -0.05005,0.0957 5e-4,0.19871 0.07032,0.23723 0.106437,0.0585 0.221352,-0.007 0.252887,-0.0965 0.0344,-0.099 -0.02105,-0.19715 -0.114,-0.22602"
     id="Fill-299"
     fill="#c51631"
     style="fill-rule:evenodd;stroke:none;stroke-width:0.125" /><path
     d="m 82.64123,912.312 c -0.05582,-0.0149 -0.10536,0.008 -0.129925,0.0392 -0.05909,0.0743 -0.0218,0.17645 0.05846,0.20352 0.04205,0.0144 0.08859,0.002 0.11762,-0.0194 0.08557,-0.0663 0.05109,-0.19767 -0.04615,-0.22334"
     id="Fill-301"
     fill="#c51631"
     style="fill-rule:evenodd;stroke:none;stroke-width:0.125" /><path
     d="m 83.035625,912.5201 c -0.02765,-0.004 -0.05013,0.0109 -0.05933,0.0267 -0.0471,0.0819 0.07164,0.13207 0.10759,0.0698 0.02715,-0.0478 -0.0025,-0.0906 -0.04825,-0.0965"
     id="Fill-303"
     fill="#c51631"
     style="fill-rule:evenodd;stroke:none;stroke-width:0.125" /><path
     d="m 83.450125,912.7165 c -0.03645,0.0151 0.01615,0.0492 0.01855,0.0145 2.5e-4,-0.006 -0.0056,-0.0177 -0.01855,-0.0145"
     id="Fill-305"
     fill="#c51631"
     style="fill-rule:evenodd;stroke:none;stroke-width:0.125" /><path
     d="m 82.068803,912.5612 c -0.03114,-0.006 -0.045,-0.007 -0.06558,-0.002 -0.0432,0.0107 -0.09441,0.0444 -0.111172,0.11462 -0.0111,0.0466 0.0029,0.0946 0.02739,0.12654 0.05423,0.0708 0.158637,0.0682 0.212314,0.0269 0.101215,-0.0785 0.06012,-0.24112 -0.06296,-0.26619"
     id="Fill-307"
     fill="#c51631"
     style="fill-rule:evenodd;stroke:none;stroke-width:0.125" /><path
     d="m 82.479085,912.76167 c -0.07554,-0.0147 -0.141,0.0647 -0.10612,0.1378 0.0208,0.043 0.08315,0.0701 0.13164,0.0464 0.08433,-0.0408 0.06726,-0.16627 -0.0255,-0.18421"
     id="Fill-309"
     fill="#c51631"
     style="fill-rule:evenodd;stroke:none;stroke-width:0.125" /><path
     d="m 82.882165,912.96749 c -0.01795,-5e-4 -0.02765,0.009 -0.03235,0.0177 -0.0323,0.0624 0.06638,0.0809 0.07215,0.0202 0.002,-0.0199 -0.0164,-0.0367 -0.0398,-0.0378"
     id="Fill-311"
     fill="#c51631"
     style="fill-rule:evenodd;stroke:none;stroke-width:0.125" /><path
     d="m 81.908088,913.02209 c -0.06829,-0.0118 -0.138887,0.0399 -0.130245,0.12402 0.0059,0.0594 0.07008,0.10917 0.13156,0.0994 0.04579,-0.008 0.101695,-0.0517 0.09381,-0.12623 -0.0037,-0.0386 -0.0354,-0.0869 -0.09513,-0.0972"
     id="Fill-313"
     fill="#c51631"
     style="fill-rule:evenodd;stroke:none;stroke-width:0.125" /><path
     d="m 82.327875,913.2258 c -0.0347,-0.008 -0.06112,0.005 -0.07147,0.0385 -0.02055,0.0655 0.0868,0.11377 0.113445,0.0375 0.0142,-0.0403 -0.01145,-0.0684 -0.04195,-0.0759"
     id="Fill-315"
     fill="#c51631"
     style="fill-rule:evenodd;stroke:none;stroke-width:0.125" /><path
     d="m 82.731235,913.41579 c -0.0362,0.0149 0.0164,0.0491 0.0187,0.0146 2.5e-4,-0.007 -0.0053,-0.0176 -0.0187,-0.0146"
     id="Fill-317"
     fill="#c51631"
     style="fill-rule:evenodd;stroke:none;stroke-width:0.125" /><path
     d="m 81.752083,913.49232 c -0.03198,-0.005 -0.04507,0.007 -0.0524,0.0136 -0.0221,0.0204 -0.0235,0.0489 -0.02123,0.0615 0.005,0.0324 0.04177,0.0592 0.07605,0.0535 0.07,-0.0112 0.06976,-0.11686 -0.0025,-0.12851"
     id="Fill-319"
     fill="#c51631"
     style="fill-rule:evenodd;stroke:none;stroke-width:0.125" /><path
     d="m 82.16798,913.68446 c -0.0184,-0.002 -0.02155,0.007 -0.024,0.0151 -0.0074,0.0294 0.0366,0.0366 0.0439,0.0103 0.0035,-0.0129 -0.0035,-0.0244 -0.01995,-0.0254"
     id="Fill-321"
     fill="#c51631"
     style="fill-rule:evenodd;stroke:none;stroke-width:0.125" /><path
     d="m 81.596776,913.96048 c -0.01892,-0.002 -0.02185,0.007 -0.02397,0.0154 -0.0076,0.0292 0.03643,0.0365 0.04376,0.0102 0.0039,-0.013 -0.0037,-0.0242 -0.0198,-0.0256"
     id="Fill-323"
     fill="#c51631"
     style="fill-rule:evenodd;stroke:none;stroke-width:0.125" /><path
     d="m 78.934221,913.43835 c -0.05272,-0.0145 -0.105718,0.0213 -0.100662,0.0838 0.0055,0.0618 0.09178,0.0957 0.136698,0.048 0.04309,-0.0459 0.02405,-0.11582 -0.03603,-0.13172"
     id="Fill-325"
     fill="#c51631"
     style="fill-rule:evenodd;stroke:none;stroke-width:0.125" /><path
     d="m 79.357138,913.58751 c -0.05272,-0.0143 -0.105719,0.0215 -0.100542,0.0838 0.0054,0.0617 0.09158,0.0956 0.136338,0.048 0.04336,-0.0458 0.02461,-0.11562 -0.0358,-0.13172"
     id="Fill-327"
     fill="#c51631"
     style="fill-rule:evenodd;stroke:none;stroke-width:0.125" /><path
     d="m 78.512566,913.30014 c -0.0516,-0.0154 -0.09477,0.0294 -0.08915,0.0746 0.0098,0.0814 0.150354,0.0766 0.138887,-0.0198 -0.0028,-0.0239 -0.02504,-0.0475 -0.04973,-0.0548"
     id="Fill-329"
     fill="#c51631"
     style="fill-rule:evenodd;stroke:none;stroke-width:0.125" /><path
     d="m 79.767512,913.74281 c -0.02895,-0.005 -0.05288,0.009 -0.06323,0.0225 -0.03341,0.0441 -0.01076,0.0862 0.0093,0.1016 0.03023,0.0233 0.07904,0.0195 0.1009,-0.01 0.03839,-0.0506 0.0051,-0.10661 -0.04694,-0.11446"
     id="Fill-331"
     fill="#c51631"
     style="fill-rule:evenodd;stroke:none;stroke-width:0.125" /><path
     d="m 78.076975,913.16515 c -0.0401,-0.006 -0.06056,0.0231 -0.0608,0.053 -6e-4,0.0593 0.106435,0.0709 0.107271,-0.005 2.38e-4,-0.0254 -0.02134,-0.0442 -0.04647,-0.048"
     id="Fill-333"
     fill="#c51631"
     style="fill-rule:evenodd;stroke:none;stroke-width:0.125" /><path
     d="m 80.186928,913.90913 c -0.03986,-0.006 -0.06041,0.0232 -0.06064,0.053 -4.75e-4,0.0596 0.106673,0.0711 0.107271,-0.005 7.9e-5,-0.0254 -0.02155,-0.0443 -0.04662,-0.0483"
     id="Fill-335"
     fill="#c51631"
     style="fill-rule:evenodd;stroke:none;stroke-width:0.125" /><path
     d="m 77.654445,913.0373 c -0.04639,-0.0107 -0.04779,0.0514 -0.01605,0.0607 0.04082,0.0121 0.05332,-0.0522 0.01605,-0.0607"
     id="Fill-337"
     fill="#c51631"
     style="fill-rule:evenodd;stroke:none;stroke-width:0.125" /><path
     d="m 80.610506,914.07964 c -0.04639,-0.0107 -0.04774,0.0515 -0.01605,0.0608 0.04094,0.0119 0.05324,-0.0521 0.01605,-0.0608"
     id="Fill-339"
     fill="#c51631"
     style="fill-rule:evenodd;stroke:none;stroke-width:0.125" /><path
     d="m 77.223365,912.9039 c -0.0362,0.0149 0.01628,0.049 0.01875,0.0143 4.75e-4,-0.006 -0.0055,-0.0175 -0.01875,-0.0143"
     id="Fill-341"
     fill="#c51631"
     style="fill-rule:evenodd;stroke:none;stroke-width:0.125" /><path
     d="m 81.020434,914.243 c -0.03611,0.015 0.01656,0.0489 0.019,0.0145 2.5e-4,-0.007 -0.0056,-0.0177 -0.019,-0.0145"
     id="Fill-343"
     fill="#c51631"
     style="fill-rule:evenodd;stroke:none;stroke-width:0.125" /><path
     d="m 77.919373,913.62443 c -0.03636,0.0149 0.01628,0.0488 0.01868,0.0145 5.5e-4,-0.007 -0.0053,-0.018 -0.01868,-0.0145"
     id="Fill-345"
     fill="#c51631"
     style="fill-rule:evenodd;stroke:none;stroke-width:0.125" /><path
     d="m 78.342481,913.77347 c -0.03643,0.015 0.01613,0.0491 0.01852,0.0147 4.75e-4,-0.007 -0.0054,-0.0177 -0.01852,-0.0147"
     id="Fill-347"
     fill="#c51631"
     style="fill-rule:evenodd;stroke:none;stroke-width:0.125" /><path
     d="m 78.762989,913.92181 c -0.03643,0.0149 0.01633,0.0491 0.01875,0.0147 4.75e-4,-0.007 -0.0055,-0.0179 -0.01875,-0.0147"
     id="Fill-349"
     fill="#c51631"
     style="fill-rule:evenodd;stroke:none;stroke-width:0.125" /><path
     d="m 79.185846,914.071 c -0.0362,0.0149 0.0164,0.049 0.01875,0.0147 4.75e-4,-0.007 -0.0054,-0.0179 -0.01875,-0.0147"
     id="Fill-351"
     fill="#c51631"
     style="fill-rule:evenodd;stroke:none;stroke-width:0.125" /><path
     d="m 79.608978,914.22032 c -0.03636,0.0147 0.01605,0.0489 0.01852,0.0147 4e-4,-0.007 -0.0053,-0.018 -0.01852,-0.0147"
     id="Fill-353"
     fill="#c51631"
     style="fill-rule:evenodd;stroke:none;stroke-width:0.125" /></svg>
